<?xml version="1.0" standalone="no"?>
<!DOCTYPE svg PUBLIC "-//W3C//DTD SVG 20010904//EN"
 "http://www.w3.org/TR/2001/REC-SVG-20010904/DTD/svg10.dtd">
<svg version="1.0" xmlns="http://www.w3.org/2000/svg"
 width="688.000000pt" height="688.000000pt" viewBox="0 0 688.000000 688.000000"
 preserveAspectRatio="xMidYMid meet">
<metadata>
Created by potrace 1.14, written by Peter Selinger 2001-2017
</metadata>
<g transform="translate(0.000000,688.000000) scale(0.100000,-0.100000)"
fill="#000000" stroke="none">
<path d="M5190 6060 c-9 -6 -10 -10 -3 -10 6 0 15 5 18 10 8 12 4 12 -15 0z"/>
<path d="M5233 6044 c0 -17 4 -24 13 -20 8 3 14 1 14 -4 0 -6 -9 -10 -19 -10
-11 0 -22 -6 -24 -12 -3 -7 -4 2 -2 19 3 30 2 32 -16 23 -22 -12 -25 -21 -6
-16 6 1 9 1 4 -1 -4 -3 -4 -9 -1 -15 4 -6 -2 -6 -14 1 -28 15 -32 14 -26 -6 5
-17 5 -17 -6 0 -6 9 -16 17 -22 17 -6 0 -5 -7 3 -17 12 -16 11 -16 -8 0 -20
18 -21 18 -37 -5 -9 -12 -16 -19 -16 -14 0 4 9 21 21 38 12 16 18 32 15 35 -3
4 -6 1 -6 -5 0 -6 -8 -9 -17 -6 -13 4 -14 3 -5 -3 10 -8 10 -12 -3 -23 -11 -9
-18 -10 -28 -1 -16 13 -28 5 -20 -15 3 -8 0 -14 -6 -14 -6 0 -11 8 -11 17 0 9
-3 13 -7 10 -3 -4 -13 -1 -22 5 -12 10 -12 7 2 -8 14 -17 15 -21 2 -21 -8 0
-15 4 -15 9 0 4 -7 8 -15 8 -8 0 -15 -5 -15 -11 0 -5 6 -7 13 -3 8 5 8 2 -2
-9 -14 -18 -22 -22 -20 -9 4 22 -4 30 -31 28 -16 0 -30 -4 -30 -8 0 -5 -5 -8
-11 -8 -5 0 -8 4 -5 8 3 5 -1 9 -9 9 -11 0 -10 -6 5 -27 18 -25 18 -26 -1 -27
-10 -1 -21 2 -24 8 -3 5 2 6 12 3 11 -3 14 -2 8 3 -5 4 -13 12 -16 16 -3 4
-11 -4 -17 -19 -7 -14 -8 -23 -2 -19 6 3 7 -1 4 -9 -3 -9 -10 -16 -16 -16 -5
0 -7 4 -3 9 8 15 -15 25 -28 12 -15 -15 -40 -14 -31 2 5 7 0 6 -11 -3 -10 -8
-20 -14 -22 -12 -2 1 -11 -2 -21 -7 -9 -6 -12 -11 -6 -11 5 0 15 5 22 12 9 9
12 9 12 -2 0 -12 2 -12 9 -2 7 11 9 11 14 0 4 -11 -4 -14 -34 -13 -22 1 -42
-2 -45 -6 -2 -5 -11 -6 -19 -3 -8 4 -13 9 -10 14 2 4 -7 5 -21 2 -25 -4 -24
-5 13 -23 21 -11 30 -17 21 -14 -10 2 -18 -1 -19 -8 0 -7 -4 -3 -9 8 -6 13 -9
15 -9 5 -1 -13 -3 -13 -10 -1 -8 12 -13 12 -35 -3 -15 -9 -24 -22 -20 -27 4
-7 -3 -6 -16 1 -20 11 -22 10 -17 -4 3 -8 1 -18 -5 -22 -6 -4 -8 -3 -5 3 4 6
-1 13 -11 16 -9 2 -26 8 -37 12 -18 6 -18 5 -3 -5 10 -6 15 -17 11 -26 -4 -12
-8 -11 -20 6 -16 22 -36 18 -27 -5 4 -8 9 -13 13 -10 4 2 8 -2 8 -10 0 -12 -3
-12 -16 -2 -24 19 -30 29 -24 46 4 13 3 13 -5 2 -6 -8 -9 -29 -7 -47 1 -19 -2
-31 -7 -28 -5 3 -16 0 -24 -7 -9 -7 -22 -14 -29 -15 -17 -3 -12 29 6 34 12 3
12 2 0 -6 -8 -6 -9 -12 -3 -16 5 -3 15 0 21 8 9 11 8 15 -5 20 -9 3 -22 3 -28
-2 -16 -12 -41 -8 -39 6 2 7 -2 12 -7 12 -13 0 -13 -13 0 -26 14 -14 -4 -35
-32 -38 -21 -2 -25 1 -21 18 3 18 2 18 -7 -2 -5 -13 -8 -28 -5 -32 6 -10 -14
-8 -35 4 -8 4 -4 -2 9 -13 13 -12 21 -24 17 -28 -3 -3 -6 -3 -6 2 0 4 -10 0
-22 -11 -23 -19 -23 -19 -6 1 16 20 16 21 -5 34 -19 13 -21 12 -10 -1 7 -8 10
-18 6 -21 -9 -10 -25 -9 -19 1 3 5 -1 9 -8 9 -9 0 -12 -7 -8 -16 5 -14 3 -14
-11 -3 -14 12 -16 11 -12 -10 4 -22 4 -22 -10 -4 -8 10 -12 23 -9 27 3 5 0 9
-6 9 -6 0 -8 -11 -6 -24 4 -20 1 -24 -15 -21 -10 2 -21 0 -24 -6 -4 -5 -11 -9
-18 -9 -6 0 -5 5 4 13 8 6 12 11 10 10 -2 -2 -10 2 -17 8 -8 7 -14 6 -20 -2
-4 -8 -3 -9 4 -5 7 4 12 3 12 -2 0 -16 -13 -22 -27 -11 -9 9 -13 8 -13 0 0 -6
5 -11 11 -11 5 0 7 -6 3 -12 -5 -9 -2 -9 9 1 9 7 17 9 17 3 0 -12 -30 -26 -49
-23 -8 1 -10 -2 -6 -9 5 -9 1 -9 -15 0 -21 11 -22 10 -17 -9 3 -11 0 -24 -5
-28 -6 -3 -8 -1 -5 4 5 7 -9 10 -40 9 -41 -2 -47 -5 -48 -25 l-2 -23 19 23
c11 13 17 19 14 12 -4 -6 2 -17 11 -23 17 -11 17 -11 -1 -6 -10 4 -24 1 -32
-4 -15 -13 -34 15 -27 40 4 13 3 13 -6 1 -6 -10 -6 -21 0 -32 13 -24 12 -49
-1 -29 -9 14 -11 13 -14 -9 0 -5 -4 -13 -8 -17 -4 -3 -6 3 -3 15 5 24 -1 26
-20 7 -8 -7 -11 -17 -7 -21 4 -5 1 -5 -6 -1 -11 6 -11 11 0 24 8 10 8 13 1 9
-6 -4 -13 -4 -16 0 -2 5 -2 2 0 -6 2 -9 -2 -11 -14 -7 -16 6 -16 6 0 -12 16
-17 15 -18 -13 -16 -17 1 -30 -2 -30 -8 0 -5 8 -7 19 -3 21 6 49 -19 31 -30
-6 -4 -9 -1 -8 7 2 7 -4 11 -12 9 -26 -6 -45 -9 -53 -10 -5 -1 -5 -11 -2 -23
4 -16 3 -19 -3 -9 -8 10 -12 9 -23 -6 -13 -19 -54 -29 -43 -11 3 5 10 6 15 3
5 -4 6 2 2 11 -4 11 -8 13 -11 6 -2 -7 -9 -9 -14 -6 -7 4 -8 2 -4 -4 4 -7 1
-12 -6 -12 -7 -1 -2 -7 11 -14 23 -13 23 -13 2 -19 -11 -3 -19 -1 -15 4 3 5 2
9 -3 10 -4 0 -16 2 -25 4 -16 3 -16 1 -2 -21 9 -13 21 -21 27 -17 6 3 7 1 3
-5 -5 -9 -12 -9 -26 0 -14 9 -22 9 -35 -2 -9 -7 -14 -19 -11 -26 3 -7 0 -16
-6 -20 -7 -4 -8 -3 -4 4 5 8 -1 12 -14 12 -13 0 -24 -8 -27 -20 -5 -19 -14
-24 -40 -21 -6 1 -14 -3 -18 -8 -3 -6 -12 -8 -19 -5 -8 3 -17 1 -21 -5 -4 -7
0 -8 11 -4 13 5 15 3 9 -8 -5 -8 0 -6 12 4 14 12 23 15 28 7 4 -6 1 -9 -7 -8
-7 2 -12 -2 -11 -8 1 -7 -9 -11 -27 -10 -16 1 -28 0 -28 -3 2 -19 -3 -31 -13
-31 -5 0 -7 6 -3 13 4 6 4 9 -1 5 -4 -4 -14 0 -22 10 -13 16 -13 15 -5 -3 5
-11 8 -28 7 -38 -2 -9 1 -15 6 -11 5 3 7 10 4 15 -10 15 2 10 16 -8 8 -10 9
-14 2 -10 -6 4 -15 2 -18 -4 -4 -5 -14 -8 -22 -4 -13 5 -14 3 -3 -10 7 -9 9
-15 4 -14 -20 3 -34 -2 -34 -12 0 -6 7 -8 18 -4 14 5 15 4 5 -6 -20 -20 -41 4
-23 26 7 8 8 15 2 15 -5 0 -13 -7 -16 -16 -3 -8 -10 -13 -14 -10 -5 3 -9 -1
-9 -9 0 -8 5 -13 10 -12 5 1 11 -6 12 -17 3 -14 1 -16 -8 -7 -19 19 -30 12
-25 -14 3 -14 1 -28 -5 -32 -6 -3 -7 -1 -3 5 4 7 2 12 -4 12 -6 0 -8 5 -4 12
5 7 3 8 -5 4 -7 -5 -10 -14 -8 -21 4 -8 -3 -11 -19 -9 -13 1 -27 -3 -31 -8 -3
-7 -1 -8 5 -4 8 5 12 -2 11 -21 0 -18 -3 -23 -7 -13 -4 8 -16 16 -27 17 -19 1
-19 1 -2 -11 17 -13 25 -32 8 -22 -5 3 -12 -1 -15 -10 -4 -9 -13 -14 -21 -10
-8 3 -15 1 -15 -5 0 -6 -5 -7 -10 -4 -6 4 -10 3 -9 -2 4 -21 -2 -32 -15 -27
-17 6 -31 -12 -16 -21 12 -7 4 -25 -11 -25 -6 0 -7 4 -4 10 4 6 -1 7 -11 3
-11 -4 -15 -3 -10 5 3 6 2 13 -3 16 -5 4 -8 -1 -7 -10 1 -8 9 -20 17 -25 13
-8 6 -13 -14 -10 -5 1 -6 -3 -3 -8 4 -5 1 -13 -5 -17 -9 -5 -7 -11 5 -19 15
-12 15 -13 -1 -20 -28 -12 -44 -14 -38 -5 3 5 1 11 -4 14 -5 4 -8 -1 -7 -10 1
-8 9 -20 17 -25 19 -12 2 -11 -21 1 -16 8 -18 8 -14 -5 4 -8 10 -15 15 -15 5
0 9 -5 9 -10 0 -7 -6 -7 -18 -1 -18 10 -35 1 -60 -31 -10 -12 -10 -18 -1 -24
7 -4 9 -3 6 3 -4 6 2 18 12 27 15 14 19 15 24 3 3 -9 -1 -14 -11 -13 -9 0 -17
-5 -18 -11 -1 -7 -2 -15 -3 -18 0 -3 -10 -1 -21 5 -24 13 -26 7 -4 -14 13 -14
13 -16 1 -16 -9 0 -18 6 -20 13 -4 9 -6 9 -6 -1 -1 -10 -6 -10 -23 -2 -22 11
-22 10 -4 -4 10 -9 22 -13 27 -11 4 3 11 0 15 -6 5 -9 -2 -10 -27 -5 -30 6
-31 5 -15 -7 13 -10 16 -16 7 -21 -6 -4 -8 -12 -5 -18 4 -7 2 -8 -5 -4 -8 5
-9 12 -2 20 7 9 4 12 -12 13 -12 0 -16 -1 -9 -4 10 -4 8 -9 -7 -20 -12 -8 -21
-23 -21 -35 0 -17 -3 -18 -15 -8 -8 7 -12 17 -8 24 3 6 2 7 -2 3 -11 -9 -16
-39 -7 -33 4 2 14 -3 22 -12 13 -14 12 -15 -4 -9 -14 6 -17 4 -12 -9 3 -8 -1
-22 -10 -31 -8 -9 -13 -22 -10 -30 3 -8 1 -11 -5 -8 -5 4 -7 15 -4 24 3 10 -1
23 -8 30 -11 9 -14 5 -12 -23 2 -19 6 -40 10 -48 3 -7 0 -5 -8 5 -17 20 -31
23 -24 4 3 -8 -1 -14 -9 -14 -7 0 -10 5 -7 10 3 6 1 7 -5 3 -7 -4 -12 -2 -12
5 0 7 -3 9 -7 5 -5 -4 6 -19 22 -32 17 -14 22 -22 12 -18 -13 5 -16 2 -11 -12
5 -15 4 -16 -4 -4 -6 8 -8 19 -4 25 3 5 -2 4 -11 -4 -9 -7 -17 -19 -17 -25 0
-6 5 -4 11 4 9 13 10 13 6 -1 -3 -9 0 -22 6 -28 7 -7 8 -11 2 -10 -22 7 -76
-11 -69 -22 4 -8 9 -7 15 2 5 8 9 9 9 3 0 -6 -3 -14 -7 -18 -5 -4 -8 -13 -8
-19 0 -7 -12 -11 -27 -11 -15 1 -25 -3 -22 -8 3 -4 11 -5 17 -2 7 4 9 4 5 -1
-4 -4 -3 -17 3 -29 10 -20 10 -20 -5 -2 -10 12 -16 15 -16 7 0 -8 -6 -11 -16
-7 -10 4 -13 2 -8 -6 5 -8 2 -9 -9 -5 -16 6 -16 4 -2 -17 13 -20 13 -23 0 -23
-8 0 -12 4 -9 8 2 4 -1 11 -8 15 -7 4 -10 4 -6 -1 4 -4 0 -14 -10 -22 -9 -8
-11 -12 -5 -8 7 3 20 2 29 -3 15 -8 15 -10 0 -15 -12 -5 -15 -3 -10 6 5 8 4 9
-4 2 -14 -13 -19 -66 -7 -85 8 -13 7 -13 -9 -1 -9 8 -15 19 -12 26 2 6 -2 12
-9 12 -9 0 -11 -7 -5 -22 6 -17 5 -22 -8 -22 -10 0 -24 5 -32 11 -13 10 -13 9
0 -8 14 -18 13 -19 -3 -13 -11 4 -16 3 -12 -4 4 -6 13 -8 21 -5 8 3 11 0 8 -9
-3 -7 -13 -12 -23 -10 -11 2 -17 -3 -17 -17 0 -17 2 -18 12 -3 7 9 15 12 18 6
4 -5 1 -13 -5 -17 -8 -4 -7 -9 2 -16 11 -8 10 -9 -3 -4 -10 3 -25 3 -33 0 -13
-5 -13 -8 0 -20 12 -12 12 -19 3 -34 -9 -14 -15 -16 -21 -7 -6 8 -7 4 -4 -10
3 -15 1 -20 -8 -17 -15 6 -14 29 3 46 9 9 12 9 12 -1 0 -7 5 -9 11 -5 8 4 7 9
-2 15 -7 4 -18 4 -25 -1 -6 -6 -13 -8 -15 -5 -3 2 -6 -7 -7 -20 -5 -76 -8 -90
-19 -90 -6 0 -15 -4 -20 -9 -5 -5 -3 -6 5 -2 7 4 12 2 12 -5 0 -9 3 -9 14 0
11 9 16 9 22 0 4 -7 3 -9 -3 -6 -12 7 -44 -28 -35 -39 4 -3 -3 -2 -15 5 -24
12 -54 15 -38 3 6 -4 11 -13 13 -20 3 -18 -68 -83 -82 -75 -7 4 -7 2 1 -7 9
-10 15 -10 28 3 9 9 23 13 32 10 11 -4 13 -8 5 -11 -7 -2 -9 -9 -5 -15 5 -9 3
-9 -8 0 -11 9 -18 8 -31 -1 -10 -7 -14 -17 -10 -21 4 -5 1 -5 -6 -1 -7 4 -10
12 -7 17 4 5 1 9 -4 9 -16 0 -13 -16 5 -34 14 -15 14 -16 -3 -17 -41 -3 -46
-5 -50 -16 -2 -6 5 -17 17 -23 11 -6 20 -7 19 -3 -1 4 -1 15 0 23 1 13 2 13
11 0 6 -10 3 -21 -12 -37 -11 -12 -17 -26 -14 -32 4 -5 1 -13 -5 -17 -8 -4 -9
-3 -5 4 4 7 2 12 -5 12 -8 0 -6 7 5 19 17 19 17 19 -1 16 -10 -1 -17 -8 -16
-14 2 -6 -6 -15 -17 -21 -11 -6 -20 -16 -20 -23 0 -7 4 -6 10 3 8 13 10 12 11
-5 1 -11 0 -24 -1 -30 -1 -5 -3 -16 -3 -22 0 -7 -4 -13 -9 -13 -4 0 -8 -4 -8
-10 0 -5 8 -7 18 -4 15 5 15 4 -1 -6 -18 -11 -18 -13 0 -33 17 -21 17 -21 0
-8 -17 13 -18 12 -13 -15 4 -16 3 -22 0 -14 -8 17 -24 30 -39 30 -6 0 -6 -3 1
-8 6 -4 13 -15 17 -24 4 -13 2 -15 -10 -11 -10 4 -14 2 -10 -4 4 -6 -2 -18
-13 -28 -15 -14 -23 -15 -34 -6 -10 8 -16 9 -21 1 -4 -6 -1 -9 6 -8 7 2 13
-11 14 -33 2 -32 -1 -36 -19 -31 -19 5 -19 6 0 13 12 5 14 8 4 8 -8 0 -22 -4
-30 -9 -8 -5 -10 -10 -4 -10 5 0 18 -6 28 -13 16 -12 16 -13 -3 -13 -11 0 -18
3 -16 6 2 4 -2 7 -9 7 -8 0 -12 -7 -8 -15 3 -9 1 -13 -5 -9 -6 4 -16 0 -23 -8
-9 -11 -9 -15 -1 -15 7 0 9 -5 4 -12 -12 -20 -12 -37 -1 -45 7 -3 8 -1 4 5 -5
8 -2 10 8 6 12 -5 13 -9 3 -19 -7 -7 -13 -9 -15 -4 -2 5 -10 9 -19 9 -12 0
-12 -2 1 -16 9 -8 14 -19 11 -24 -3 -5 -1 -10 5 -12 6 -2 1 -9 -10 -16 -14 -8
-19 -9 -18 -1 2 6 -4 14 -12 16 -9 3 -11 1 -5 -4 10 -7 12 -27 5 -45 -4 -11
-7 -26 -9 -39 0 -5 -6 -7 -13 -3 -7 4 -8 3 -4 -5 4 -6 11 -9 16 -6 5 3 13 -3
19 -12 5 -10 12 -17 15 -15 12 5 26 2 26 -6 0 -5 -12 -14 -26 -21 -23 -10 -24
-14 -13 -29 13 -16 12 -16 -5 -2 -18 14 -19 13 -13 -3 5 -13 2 -17 -10 -15 -9
2 -18 -4 -20 -12 -4 -13 -3 -13 6 0 7 10 11 11 11 3 0 -7 8 -10 17 -7 10 3 4
-3 -12 -13 -34 -20 -36 -48 -7 -70 20 -16 8 -17 -21 -1 -19 10 -20 9 -10 -3
10 -13 8 -15 -17 -13 -17 1 -33 -3 -37 -9 -3 -5 -1 -7 4 -4 18 11 22 -19 7
-42 -8 -12 -12 -27 -8 -34 4 -6 -2 -4 -13 5 -25 23 -40 23 -17 1 11 -11 13
-18 5 -21 -6 -2 -8 -8 -5 -14 3 -5 -3 -4 -14 3 -12 7 -18 17 -16 21 9 15 -3 8
-17 -9 -8 -9 -9 -14 -3 -10 6 4 20 -3 30 -16 11 -12 12 -16 4 -10 -16 12 -57
12 -52 0 1 -4 2 -10 2 -13 0 -4 6 -1 13 5 14 11 27 5 27 -13 0 -6 -5 -4 -10 4
-8 12 -10 12 -10 1 0 -8 -7 -11 -20 -8 -11 3 -23 1 -26 -4 -3 -5 -2 -9 3 -8
10 3 63 -19 63 -25 0 -2 -10 -2 -22 2 -14 3 -19 1 -14 -6 4 -7 -1 -10 -13 -7
-12 2 -21 -3 -24 -16 -3 -10 -10 -19 -16 -19 -7 0 -5 10 5 25 9 14 20 23 24
20 5 -3 12 0 15 6 5 7 -3 9 -25 5 -32 -5 -54 -16 -32 -16 7 0 12 -4 12 -10 0
-5 -8 -7 -17 -4 -15 5 -16 4 -3 -5 8 -6 11 -11 6 -11 -5 0 -2 -8 5 -17 12 -15
12 -16 -4 -10 -10 4 -16 3 -12 -2 3 -5 2 -11 -2 -14 -5 -2 -1 -2 7 0 12 3 13
2 3 -8 -7 -7 -13 -18 -13 -23 1 -6 12 3 26 19 22 26 24 27 13 5 -7 -14 -12
-28 -11 -32 1 -5 -4 -7 -11 -5 -6 1 -11 -6 -11 -16 2 -14 -1 -15 -12 -6 -17
14 -19 33 -1 23 6 -4 8 -3 4 1 -4 5 -14 10 -22 11 -12 2 -12 -2 -5 -17 12 -22
-4 -27 -17 -5 -7 12 -10 12 -22 -1 -11 -12 -11 -14 0 -12 8 1 25 -3 39 -10
l25 -11 -27 5 c-15 3 -30 0 -33 -5 -4 -6 -11 -8 -16 -5 -5 4 -9 1 -9 -4 0 -14
17 -14 26 0 5 8 10 6 16 -5 6 -10 7 -20 4 -23 -3 -4 -6 -1 -6 6 0 8 -6 9 -18
3 -9 -5 -25 -8 -35 -7 -9 2 -15 -1 -11 -6 3 -5 9 -7 13 -5 4 3 12 -4 19 -15 7
-11 8 -19 2 -19 -5 0 -10 5 -10 10 0 6 -7 10 -15 10 -8 0 -15 -4 -15 -10 0 -5
-6 -9 -12 -7 -7 1 -13 -7 -13 -18 -1 -11 -6 -19 -13 -18 -6 2 -9 -4 -5 -12 5
-14 7 -13 18 1 9 13 14 14 19 5 5 -7 5 -15 2 -18 -3 -4 -6 0 -6 8 0 12 -2 12
-9 0 -12 -18 -41 -23 -58 -10 -9 8 -11 6 -8 -10 6 -32 16 -43 32 -37 8 3 12 2
9 -3 -3 -5 -22 -8 -41 -6 -19 2 -35 2 -35 1 0 -2 9 -14 21 -27 19 -22 19 -24
2 -37 -10 -7 -18 -18 -18 -24 0 -6 -6 -13 -12 -15 -18 -6 -16 12 2 27 8 7 12
17 8 23 -4 7 0 8 13 3 15 -6 16 -5 7 5 -10 10 -15 9 -27 -1 -9 -7 -13 -17 -9
-23 4 -6 0 -8 -10 -4 -9 3 -19 1 -23 -5 -4 -7 -3 -8 4 -4 7 4 12 3 12 -3 0 -5
-9 -13 -21 -16 -13 -4 -18 -12 -15 -21 3 -9 -5 -26 -18 -39 -20 -20 -21 -23
-6 -22 10 1 17 4 14 8 -2 4 0 10 5 13 5 4 8 -2 7 -11 -2 -10 -8 -19 -14 -19
-7 -1 -17 -2 -23 -3 -6 0 -9 -7 -6 -15 4 -10 -1 -13 -19 -11 -13 1 -24 -2 -24
-6 0 -9 15 -13 33 -10 5 1 6 -3 2 -9 -3 -6 -11 -8 -16 -4 -5 3 -17 0 -25 -7
-8 -6 -18 -9 -21 -5 -4 4 -1 11 7 16 9 6 10 10 3 10 -18 0 -26 -19 -14 -34 6
-7 7 -17 3 -21 -4 -5 0 -5 8 0 12 6 12 5 3 -5 -13 -14 -37 -4 -27 12 4 7 2 8
-5 4 -9 -6 -9 -11 -1 -21 8 -10 2 -18 -25 -35 -36 -22 -46 -34 -21 -24 9 3 19
-4 26 -18 10 -20 9 -21 -3 -6 -12 15 -15 14 -37 -12 -17 -21 -28 -26 -36 -19
-8 7 -15 6 -20 -2 -4 -7 -3 -9 4 -5 12 7 38 -32 28 -42 -3 -3 -6 -1 -6 5 0 6
-7 13 -15 17 -12 4 -13 2 -6 -12 10 -19 -11 -57 -32 -57 -7 -1 -11 -6 -10 -13
2 -7 0 -11 -5 -11 -18 3 -32 -2 -32 -12 0 -6 7 -8 16 -5 9 4 13 2 8 -5 -3 -6
-17 -9 -30 -6 -14 2 -21 0 -17 -6 4 -6 0 -8 -11 -4 -11 4 -15 3 -11 -4 4 -6
12 -8 19 -6 6 2 20 0 31 -5 18 -8 18 -8 -3 -4 -14 3 -30 -3 -42 -16 l-19 -21
4 22 c4 19 2 21 -11 10 -13 -10 -13 -14 1 -29 14 -15 14 -18 0 -30 -8 -7 -12
-16 -9 -21 3 -5 -2 -12 -10 -15 -9 -3 -13 -10 -10 -16 3 -5 13 -4 22 4 15 12
15 11 4 -4 -7 -9 -22 -15 -33 -13 -13 3 -19 -2 -19 -13 0 -10 -3 -13 -8 -7 -4
6 -16 17 -26 25 -19 15 -19 14 -2 -12 14 -22 15 -31 6 -49 -10 -17 -9 -23 1
-30 11 -7 10 -12 -5 -26 -16 -14 -17 -14 -7 -1 7 10 8 19 2 22 -5 3 -12 0 -14
-6 -4 -10 -6 -10 -6 0 -1 7 -6 10 -13 6 -7 -4 -8 -3 -4 5 4 6 11 9 15 6 5 -2
13 7 20 21 6 14 7 23 2 19 -5 -3 -12 -1 -16 5 -8 13 -25 13 -25 -1 0 -5 4 -8
9 -4 5 3 13 0 16 -6 7 -11 -25 -40 -36 -33 -4 2 -5 -5 -2 -16 3 -11 10 -17 16
-13 6 3 7 1 3 -5 -4 -6 -13 -9 -21 -6 -8 4 -13 9 -10 13 2 4 -2 8 -9 8 -8 0
-12 -6 -9 -14 3 -7 9 -13 14 -13 5 0 9 -5 9 -11 0 -6 -7 -9 -15 -6 -20 8 -29
-11 -14 -29 10 -12 9 -13 -5 -8 -9 3 -16 11 -17 18 -1 6 -4 0 -8 -14 -4 -15
-14 -24 -24 -24 -9 1 -14 -2 -11 -7 3 -5 -6 -20 -20 -34 l-25 -24 29 3 c16 2
27 -1 24 -6 -3 -5 -11 -8 -17 -7 -30 4 -39 -1 -28 -14 8 -10 7 -14 -4 -14 -8
0 -12 4 -9 9 3 4 0 8 -6 8 -6 0 -8 5 -4 12 4 7 3 8 -5 4 -6 -4 -9 -11 -6 -16
6 -10 -20 -32 -28 -23 -4 3 -7 1 -7 -5 0 -14 16 -16 25 -2 3 5 12 7 20 4 11
-5 12 -9 2 -19 -7 -8 -14 -9 -18 -3 -3 5 -14 2 -23 -8 -15 -15 -19 -15 -28 -3
-8 11 -9 11 -4 -3 3 -10 1 -20 -4 -23 -5 -3 -8 -19 -6 -35 2 -21 0 -27 -11
-23 -10 4 -11 9 -2 19 6 8 7 14 3 14 -10 0 -38 -39 -39 -55 0 -5 4 -14 10 -18
6 -5 3 -7 -7 -3 -10 3 -18 2 -18 -2 0 -5 -6 -16 -13 -27 -11 -14 -16 -15 -22
-5 -5 8 -4 11 2 7 6 -4 13 -1 16 6 3 7 -3 13 -12 13 -10 0 -17 -9 -18 -21 0
-11 -3 -31 -6 -45 -2 -14 0 -32 7 -40 9 -12 7 -12 -9 1 -18 14 -22 14 -41 -7
-12 -13 -20 -25 -17 -28 3 -2 -5 -10 -18 -16 -20 -11 -21 -10 -15 6 4 11 -3 7
-17 -10 -14 -17 -28 -26 -36 -22 -6 4 -8 12 -5 18 4 7 2 8 -5 4 -8 -5 -9 -12
-3 -19 17 -21 9 -62 -12 -60 -13 1 -16 -4 -13 -18 4 -15 2 -17 -13 -9 -20 11
-31 4 -23 -16 4 -10 0 -12 -11 -8 -23 9 -20 -13 4 -28 11 -7 20 -19 20 -26 0
-8 6 -12 14 -9 7 3 19 0 26 -6 10 -9 11 -9 5 2 -6 10 -2 11 15 6 13 -4 20 -3
17 2 -3 5 -2 15 4 23 6 11 8 6 5 -15 -2 -26 0 -30 21 -30 12 1 26 5 30 9 5 4
4 7 -2 6 -23 -5 -35 1 -35 18 0 12 3 13 8 5 8 -12 48 -10 61 2 3 4 -6 4 -21 1
-20 -3 -25 -1 -22 9 3 8 13 11 22 9 9 -3 6 1 -7 9 l-23 14 22 6 c12 3 19 10
16 15 -3 5 1 15 9 22 8 7 15 20 15 28 0 13 2 12 14 -3 7 -10 21 -20 31 -21 13
-2 15 0 6 9 -17 17 -13 27 7 21 14 -5 14 -4 3 4 -18 13 -24 43 -8 41 16 -3 67
22 67 33 0 12 -10 10 -26 -7 -20 -19 -30 -19 -38 1 -5 13 -4 14 7 6 15 -13 37
2 33 22 -2 6 -1 8 1 4 9 -15 32 -8 43 13 10 17 14 18 28 7 15 -12 16 -11 3 5
-8 10 -15 30 -16 43 -1 23 1 24 12 8 7 -9 10 -21 6 -27 -3 -6 -1 -7 5 -4 5 4
8 15 5 26 -3 12 5 24 27 38 18 11 31 23 31 27 -1 3 1 5 4 4 9 -5 37 43 32 56
-3 7 1 13 8 13 7 0 11 -7 8 -16 -4 -13 -3 -13 5 -2 11 16 5 44 -8 36 -11 -7
-6 22 5 32 4 4 5 3 2 -3 -4 -6 5 -22 20 -35 l26 -24 -17 26 c-18 28 -13 40 12
32 13 -3 12 -1 -3 12 -20 17 -20 17 2 11 18 -6 21 -3 17 16 l-5 23 10 -22 c6
-12 8 -31 6 -43 -2 -11 0 -18 5 -15 4 3 7 16 5 30 -1 15 4 30 14 36 15 10 15
10 0 6 -12 -4 -15 -1 -12 13 5 17 7 17 20 5 19 -19 24 -19 16 2 -5 12 -3 14 7
8 9 -5 11 -4 6 4 -4 6 -11 9 -15 7 -4 -3 -13 0 -21 6 -13 8 -12 9 2 5 9 -3 24
1 35 8 10 8 14 15 9 15 -5 0 -3 7 4 15 6 8 9 19 5 24 -4 7 0 8 10 5 9 -4 14
-13 11 -21 -3 -8 -6 -17 -6 -19 0 -3 -6 -2 -13 2 -6 4 -9 4 -5 -1 4 -4 4 -13
-2 -19 -5 -7 -5 -17 0 -26 7 -11 10 -11 11 -2 1 6 2 17 3 22 0 6 7 14 14 19 8
5 13 11 13 15 -3 23 0 30 9 16 5 -8 10 -10 10 -4 0 6 -8 18 -17 25 -14 12 -16
12 -8 0 5 -9 4 -12 -3 -8 -12 8 -10 32 3 44 4 4 5 3 1 -4 -11 -19 26 -32 52
-18 23 12 23 13 3 18 -13 3 -19 1 -14 -5 4 -7 1 -8 -7 -3 -9 6 -11 4 -5 -6 5
-8 4 -10 0 -6 -14 12 -15 37 -2 34 7 -1 11 6 11 16 -2 14 1 15 12 6 17 -14 19
2 1 20 -10 10 -9 11 6 6 9 -4 17 -12 17 -19 0 -8 2 -8 8 0 4 6 13 13 21 16 8
2 15 12 17 21 1 9 -2 15 -7 11 -5 -3 -6 -10 -3 -16 5 -7 0 -9 -14 -6 -14 4
-20 2 -15 -4 3 -7 1 -8 -5 -4 -6 4 -8 14 -5 22 5 13 7 13 14 2 8 -12 13 -4 10
14 0 5 2 7 7 7 20 -3 25 2 12 12 -13 9 -12 10 2 5 16 -5 34 13 37 37 2 11 9
13 18 3 5 -5 2 -6 -6 -1 -9 5 -12 4 -7 -3 4 -6 14 -8 23 -5 11 4 13 8 5 11
-22 7 -12 19 13 17 23 -3 24 -2 8 21 -14 22 -14 24 1 18 9 -3 16 -10 16 -15 0
-5 5 -9 10 -9 6 0 3 11 -6 25 -11 17 -12 25 -5 25 7 0 9 5 5 12 -4 7 -3 8 5 4
6 -4 9 -11 7 -15 -3 -4 1 -8 9 -8 8 0 12 4 9 9 -3 4 -7 17 -9 29 -4 17 -2 19
10 9 18 -15 20 -24 2 -14 -8 5 -8 2 2 -9 16 -20 22 -22 18 -4 -1 6 4 11 11 9
8 -1 11 2 7 8 -4 6 -1 17 5 25 7 8 9 15 5 15 -4 0 -2 7 5 15 7 8 9 23 6 32 -4
10 -4 14 0 10 4 -4 14 -1 22 6 13 10 14 9 4 -10 -17 -32 -15 -41 4 -15 9 13
14 34 11 47 -2 15 0 22 6 18 6 -4 8 0 4 10 -4 11 -2 14 9 10 11 -4 12 -9 3
-19 -7 -9 -8 -18 0 -31 9 -16 10 -15 8 7 -1 15 3 24 10 23 8 -2 10 4 6 14 -4
10 -2 14 4 10 15 -10 24 18 10 32 -14 14 -18 41 -5 41 6 0 8 -7 5 -15 -8 -19
12 -30 26 -15 7 8 8 10 1 7 -6 -4 -10 3 -9 16 2 12 8 21 14 20 15 -4 14 14 -1
20 -10 4 -10 6 -1 6 7 1 10 7 7 15 -8 22 12 28 27 8 13 -15 12 -16 -3 -4 -15
12 -17 11 -15 -6 1 -13 7 -18 19 -14 21 5 21 7 8 32 -7 13 -6 21 2 26 7 4 10
4 6 0 -4 -5 -1 -14 5 -21 9 -10 15 -8 29 8 10 11 18 24 18 30 0 5 -8 -1 -18
-13 -14 -18 -19 -19 -19 -7 0 9 5 14 10 10 5 -3 6 3 3 15 -4 11 -2 23 3 27 6
3 9 0 6 -7 -4 -9 2 -14 14 -14 11 0 18 3 16 6 -2 4 2 18 10 33 8 15 11 27 7
27 -9 0 21 20 30 20 4 0 0 -9 -9 -20 -17 -20 -26 -63 -11 -54 5 3 7 11 5 17
-2 6 4 19 12 29 9 10 16 22 16 26 2 23 18 51 27 46 7 -4 7 -9 0 -13 -6 -4 -4
-12 6 -21 14 -13 15 -12 9 3 -7 18 2 22 19 9 5 -4 1 0 -8 10 -10 9 -18 21 -18
28 0 7 6 5 16 -4 8 -9 21 -16 27 -15 8 0 8 2 -1 6 -6 2 -9 10 -6 15 4 7 2 8
-4 4 -7 -4 -12 -2 -12 3 0 6 5 11 10 11 6 0 10 5 10 11 0 5 -4 8 -9 4 -5 -3
-12 -2 -15 3 -3 5 8 9 25 10 52 3 58 5 52 15 -4 7 1 8 13 3 14 -5 16 -4 8 4
-9 9 -18 8 -36 -4 -20 -13 -25 -14 -25 -2 0 8 6 12 15 8 11 -4 14 -1 9 12 -4
10 -3 15 4 11 5 -4 16 -1 24 5 11 9 15 9 15 1 0 -6 4 -11 9 -11 6 0 8 9 6 21
-3 16 0 19 12 15 13 -6 14 -4 3 9 -10 12 -15 13 -21 3 -4 -6 -6 -15 -4 -18 2
-3 -9 -6 -23 -6 -15 -1 -21 1 -14 3 10 4 10 8 0 21 -12 15 -11 16 5 3 9 -8 21
-11 24 -7 4 4 2 11 -6 15 -10 7 -9 9 3 14 8 3 18 2 21 -4 7 -11 25 -2 25 12 0
6 -5 7 -10 4 -6 -3 -10 -1 -10 4 0 16 11 13 35 -9 17 -16 22 -17 22 -6 0 8 -4
13 -8 11 -11 -7 -18 20 -9 36 5 8 4 20 -3 29 -9 12 -9 13 3 3 11 -10 18 -7 39
15 14 15 24 31 23 35 -1 5 3 5 9 1 9 -5 10 -2 6 9 -4 10 -2 16 6 14 7 -1 11 3
10 10 -1 6 8 10 22 8 23 -2 38 16 40 49 0 14 22 19 30 7 4 -7 -1 -9 -12 -5
-14 4 -15 4 -4 -4 8 -5 9 -11 3 -13 -6 -2 -3 -10 6 -19 14 -13 15 -12 9 3 -3
9 -2 17 3 17 5 0 7 13 5 29 -3 24 0 29 12 24 11 -4 14 -2 9 5 -5 8 -2 10 9 6
12 -5 13 -10 4 -20 -6 -8 -16 -11 -22 -7 -6 4 -7 1 -3 -6 10 -16 49 17 42 35
-3 7 2 15 9 18 8 3 12 14 10 26 -3 18 -2 20 10 10 10 -9 16 -7 23 6 7 13 13
14 31 5 15 -9 27 -9 41 -1 16 9 22 8 26 -4 4 -12 11 -13 24 -6 9 5 21 6 25 2
5 -4 5 -2 2 5 -4 6 -17 9 -29 5 -14 -3 -19 -2 -14 7 4 6 12 8 18 5 8 -5 9 -1
5 12 -7 18 -6 18 7 2 15 -21 42 -24 49 -5 3 9 7 9 18 1 19 -15 76 -9 109 11
13 8 13 7 1 -8 -7 -9 -16 -15 -20 -13 -4 3 -13 0 -21 -5 -13 -9 -13 -10 0 -6
8 2 23 0 32 -4 10 -6 19 -5 23 1 4 6 11 8 16 4 5 -3 6 -10 3 -16 -4 -7 -2 -8
4 -4 9 5 7 14 -4 32 -15 22 -15 24 0 18 10 -4 16 -1 16 7 0 11 3 11 10 -1 5
-8 10 -19 10 -25 0 -5 -5 -3 -10 5 -5 8 -10 11 -10 5 0 -5 4 -16 8 -23 6 -9
12 -6 20 13 8 16 8 25 1 25 -6 0 -7 5 -3 11 9 15 24 -9 17 -28 -3 -7 0 -13 7
-13 6 0 8 5 4 12 -5 8 -2 9 10 5 10 -4 15 -3 11 3 -3 6 1 13 9 16 11 4 14 16
10 42 -3 25 -1 32 5 22 5 -8 8 -17 5 -21 -2 -4 1 -11 8 -15 7 -4 10 -4 6 1 -4
4 -1 14 7 22 21 21 19 38 -2 22 -16 -13 -17 -12 -5 3 8 9 10 23 6 30 -4 7 2 4
13 -7 13 -12 17 -24 12 -30 -12 -12 -11 -25 2 -25 5 0 8 4 4 9 -3 5 -1 13 5
16 8 5 7 11 -1 21 -14 17 2 19 21 2 8 -7 6 -3 -4 10 -19 22 -10 32 11 11 7 -7
15 -6 25 5 9 8 19 12 22 8 4 -3 4 2 0 12 -7 17 -8 17 -25 -5 -10 -13 -19 -19
-19 -12 0 15 28 43 43 43 8 0 8 3 -1 9 -11 7 -11 9 2 14 8 3 18 1 22 -5 4 -6
3 -8 -2 -5 -6 3 -10 -3 -11 -13 -1 -11 2 -22 6 -24 4 -3 8 0 9 7 3 32 10 51
20 55 7 2 10 8 6 13 -3 5 0 9 5 9 15 0 14 -13 -1 -29 -10 -11 -10 -13 0 -7 6
4 12 3 12 -1 0 -5 -6 -15 -12 -23 -7 -8 -3 -6 10 5 17 14 19 21 10 27 -10 6
-8 8 5 8 24 0 32 -4 29 -13 -1 -5 2 -6 8 -2 8 5 7 12 -2 23 -11 13 -10 15 4 9
23 -8 32 7 13 23 -12 10 -13 16 -3 28 11 14 10 15 -7 8 -15 -5 -17 -4 -9 4 6
6 18 12 26 14 18 2 42 25 51 49 3 9 12 17 19 16 10 0 10 -2 1 -6 -21 -8 -15
-18 12 -19 30 -2 31 3 7 30 -14 17 -14 18 -1 8 14 -10 18 -10 23 4 3 9 3 21
-1 26 -4 7 -1 8 7 3 10 -6 12 -4 7 9 -4 11 -3 15 4 10 8 -4 9 1 4 17 -4 17 -3
20 3 10 8 -11 13 -8 27 12 9 14 14 31 10 37 -4 6 -1 9 7 8 8 -2 12 5 10 17 -2
18 -2 19 8 2 9 -13 7 -21 -5 -33 -8 -9 -13 -20 -10 -25 4 -5 1 -9 -4 -9 -6 0
-10 -6 -8 -12 1 -7 -3 -12 -9 -11 -6 1 -16 -9 -22 -22 -7 -16 -8 -25 -2 -25 6
0 10 7 10 15 0 10 7 15 18 13 10 -2 16 2 14 11 -2 9 3 11 13 7 11 -4 14 -2 9
6 -5 8 -1 9 12 4 10 -4 15 -4 11 0 -4 4 -2 12 3 19 7 8 5 12 -5 12 -8 0 -12
-4 -9 -9 3 -4 1 -8 -5 -8 -5 0 -12 4 -15 9 -9 14 22 34 54 35 15 1 32 4 36 8
3 4 -6 5 -22 2 l-29 -4 24 18 c16 13 20 22 12 26 -15 10 -33 -3 -25 -16 5 -7
2 -8 -6 -3 -8 5 -11 4 -6 -3 3 -6 2 -13 -3 -16 -9 -6 -24 34 -16 43 3 2 5 -1
5 -8 0 -7 4 -10 10 -6 5 3 7 12 4 19 -3 8 -1 17 5 21 7 3 8 0 5 -10 -5 -11 -2
-14 10 -9 9 3 16 10 16 14 0 13 -26 30 -35 22 -5 -4 -5 -1 -1 6 4 7 11 10 16
7 11 -7 39 45 33 61 -2 6 4 17 14 25 15 11 16 11 6 -1 -17 -18 -16 -27 2 -27
8 0 17 9 21 19 3 10 10 18 16 18 6 0 3 -11 -6 -24 -12 -19 -13 -27 -3 -33 18
-11 38 -13 31 -2 -3 5 -9 7 -14 4 -5 -3 -11 -1 -15 5 -3 5 -1 10 4 10 6 0 11
8 11 18 0 15 2 15 11 2 9 -13 10 -13 6 1 -3 9 1 26 9 37 9 13 11 23 4 27 -10
6 -14 -1 -11 -19 1 -5 -4 -4 -12 2 -8 7 -18 8 -22 4 -5 -4 -5 -1 -1 6 4 7 11
10 16 7 5 -3 13 2 18 11 8 15 11 15 30 -4 15 -15 17 -23 9 -33 -10 -11 -9 -11
5 -1 9 7 15 21 13 30 -2 9 -4 17 -5 17 -1 0 -3 8 -5 18 -3 15 7 22 28 18 5 -1
5 4 1 10 -5 9 -2 10 9 6 9 -3 19 -2 22 4 4 5 3 9 -2 8 -25 -4 -31 3 -27 31 4
23 2 29 -9 24 -8 -3 -18 -1 -21 4 -3 5 2 9 11 8 10 0 18 5 19 12 1 6 3 15 4
20 1 4 2 9 2 12 0 3 6 11 14 18 17 16 18 8 2 -21 -17 -31 -18 -45 -3 -51 8 -3
11 2 8 13 -2 10 2 25 11 33 8 9 12 19 8 24 -4 5 3 0 16 -10 12 -11 22 -14 22
-8 0 7 -5 12 -11 12 -5 0 -7 5 -4 10 3 6 -1 10 -9 10 -9 0 -16 5 -16 10 0 6
-1 13 -2 17 -2 3 7 8 20 9 12 2 22 -1 22 -8 0 -6 2 -9 5 -6 10 10 -7 37 -20
32 -17 -7 -29 12 -14 22 8 4 9 3 5 -4 -4 -7 -3 -12 2 -12 17 0 21 13 11 34 -9
19 -9 19 4 4 18 -23 31 -23 23 0 -3 9 6 4 21 -13 14 -16 23 -23 20 -15 -4 8
-10 23 -13 33 -6 16 -17 21 -37 18 -5 -1 -6 3 -2 8 4 7 14 6 30 -1 13 -6 22
-14 20 -18 -3 -4 2 -13 9 -19 10 -9 16 -9 21 -1 4 6 1 9 -5 8 -18 -4 -21 31
-3 41 13 7 13 9 -2 14 -16 7 -12 27 6 27 6 0 7 -5 3 -12 -4 -7 -3 -8 4 -4 15
9 16 36 2 36 -5 0 -10 5 -10 11 0 8 5 8 15 -1 10 -9 15 -9 15 -1 0 6 9 11 19
11 14 0 18 5 14 20 -3 11 -9 17 -14 14 -13 -8 -7 18 8 34 7 7 19 10 25 6 9 -6
9 -3 -1 9 -7 9 -11 18 -7 18 3 1 9 2 14 3 4 1 12 4 18 8 6 4 21 5 33 3 19 -3
21 -2 11 10 -15 17 -24 20 -14 4 4 -8 0 -7 -15 1 -18 9 -21 30 -5 30 3 0 2 -5
-2 -11 -4 -7 -1 -10 7 -7 8 3 23 1 34 -5 19 -10 19 -9 2 10 -9 11 -14 23 -10
28 5 4 -1 5 -12 1 -18 -7 -18 -5 3 17 12 13 19 27 15 31 -5 4 -2 6 6 4 7 -1
16 3 19 11 3 8 0 11 -7 7 -7 -5 -9 -1 -4 10 6 15 7 15 15 0 8 -14 12 -15 25
-4 15 12 15 11 3 -9 -8 -12 -18 -19 -24 -16 -5 4 -6 1 -1 -7 5 -9 4 -11 -4 -6
-7 5 -10 2 -9 -6 2 -7 -3 -12 -9 -10 -7 1 -13 -2 -13 -7 0 -6 9 -9 19 -8 11 0
18 4 15 8 -2 4 4 13 13 20 14 12 15 11 9 -9 -5 -14 -3 -22 4 -22 6 0 9 4 5 9
-3 5 0 13 6 17 8 4 7 9 -2 15 -11 7 -10 11 5 22 17 13 18 14 2 20 -10 4 -22 5
-27 1 -5 -3 -9 0 -9 5 0 6 7 11 15 11 21 0 19 20 -2 21 -14 0 -13 2 5 9 22 9
25 16 24 55 -1 17 0 17 4 3 3 -10 10 -18 15 -18 5 0 8 3 7 8 -2 4 1 8 5 9 13
3 36 37 31 45 -3 5 0 8 5 8 14 0 14 -13 -1 -28 -7 -7 -8 -12 -3 -12 5 0 0 -7
-11 -16 -18 -15 -17 -15 6 -1 14 8 35 17 45 20 18 4 18 5 -2 6 -16 1 -20 6
-16 21 6 23 23 27 23 5 0 -8 5 -15 10 -15 7 0 7 6 0 20 -7 14 -19 19 -39 16
-16 -2 -28 2 -28 9 0 6 6 12 14 12 7 0 13 -4 13 -9 0 -5 5 -6 10 -3 8 5 7 11
-1 21 -10 12 -9 17 0 27 10 9 11 8 5 -8 -7 -18 -6 -18 9 -6 9 7 15 16 13 20
-3 4 6 8 19 9 18 1 23 -2 19 -13 -4 -8 -10 -15 -16 -15 -5 0 -6 5 -2 12 4 7 3
8 -5 4 -6 -4 -8 -12 -5 -18 5 -7 2 -8 -6 -3 -9 6 -11 4 -5 -5 6 -9 4 -11 -6
-5 -12 8 -12 6 0 -8 17 -22 35 -22 27 -1 -5 12 -2 15 9 10 9 -3 13 -2 10 4 -3
6 -1 10 5 10 6 0 8 5 5 10 -3 6 -1 10 6 10 9 0 10 3 3 10 -15 15 -57 19 -74 6
-13 -9 -13 -9 -2 6 8 10 22 15 38 12 14 -3 33 0 42 5 14 9 14 11 2 11 -10 1
-8 4 5 10 14 5 24 3 34 -9 13 -15 13 -15 8 1 -4 11 1 22 11 28 16 11 15 11 -1
6 -12 -4 -17 -2 -15 6 2 6 14 12 26 13 32 2 38 13 7 13 -14 0 -32 -9 -39 -19
-7 -10 -16 -16 -21 -11 -5 4 -5 2 -2 -4 8 -13 -30 -27 -38 -14 -3 4 5 10 16
13 12 3 18 10 15 15 -3 5 2 16 12 23 15 13 16 12 3 -3 -16 -21 1 -25 18 -5 8
10 7 17 -2 27 -7 8 -8 10 -1 7 7 -4 18 7 28 26 8 17 16 25 16 17 1 -10 4 -9 9
4 7 19 8 19 13 -2 4 -14 2 -20 -5 -15 -6 4 -8 0 -4 -10 3 -9 -1 -18 -10 -21
-11 -4 -14 -2 -9 9 8 22 -1 19 -14 -4 -9 -17 -7 -19 12 -16 13 3 28 12 34 20
15 20 24 19 24 -4 0 -25 10 -31 35 -20 18 9 18 9 -2 5 -17 -3 -23 1 -23 14 0
11 -8 24 -17 29 -10 6 -14 11 -10 11 4 0 3 9 -3 20 -9 16 -8 18 5 14 8 -4 15
-2 15 4 0 6 -5 12 -12 14 -7 3 -5 7 6 11 10 4 15 3 11 -3 -3 -6 -1 -10 6 -10
8 0 8 -4 -1 -15 -9 -10 -9 -15 -1 -15 10 0 15 13 12 33 0 4 4 7 10 7 7 0 18 8
26 18 8 10 11 11 7 2 -7 -12 -5 -13 8 -3 8 7 17 11 19 9 2 -2 9 2 16 9 9 10 7
13 -12 11 -13 0 -21 -5 -18 -11 2 -5 -2 -2 -10 7 -8 10 -18 14 -22 10 -5 -4
-5 -2 -2 4 3 6 22 10 41 9 20 -1 36 1 36 5 0 4 12 7 27 6 18 -1 27 5 29 17 1
9 -2 15 -7 11 -5 -3 -9 0 -9 6 0 6 -5 8 -11 4 -8 -4 -7 -9 2 -16 11 -7 10 -8
-4 -4 -13 4 -16 2 -11 -7 4 -6 4 -9 -1 -5 -4 4 -16 3 -26 -3 -13 -6 -19 -6
-19 1 0 5 5 10 10 10 6 0 21 9 32 20 14 13 29 18 41 14 17 -5 18 -4 6 9 -8 8
-17 13 -21 10 -4 -2 -5 3 -2 11 7 19 20 21 30 4 5 -7 2 -8 -7 -3 -8 5 -10 4
-6 0 4 -5 14 -10 22 -11 12 -2 13 2 4 18 -8 16 -8 19 1 13 9 -5 10 -1 5 16 -4
13 -4 21 0 16 5 -4 9 -15 10 -25 0 -9 5 -18 10 -19 5 -1 12 -10 16 -20 7 -16
8 -16 8 -1 1 9 -4 20 -10 23 -6 4 -8 13 -5 20 3 8 0 16 -7 19 -7 2 -4 5 6 5
10 1 16 5 13 9 -2 4 -1 14 5 22 6 10 9 11 9 3 0 -7 5 -13 11 -13 6 0 8 9 4 23
-4 15 -4 18 3 8 5 -7 15 -10 21 -6 8 5 9 11 2 19 -8 9 -7 13 4 13 8 0 12 -4 9
-9 -3 -4 0 -8 6 -8 7 0 2 -11 -11 -25 -13 -13 -29 -25 -36 -25 -15 0 -35 -35
-26 -44 13 -13 24 -5 18 14 -4 13 -2 20 6 20 7 0 21 7 31 17 17 15 18 15 18
-5 0 -11 4 -23 9 -26 4 -3 6 6 3 21 -3 17 -1 24 6 19 13 -8 35 28 24 39 -4 4
0 6 8 3 8 -3 14 -13 12 -23 -3 -14 -1 -15 11 -4 8 8 11 16 7 19 -5 3 -3 13 4
22 7 10 17 14 22 10 4 -4 2 1 -5 11 -15 20 -26 23 -15 5 4 -7 -1 -6 -11 4 -20
18 -12 40 11 31 8 -3 12 -8 9 -11 -2 -3 4 -11 15 -19 11 -8 17 -20 14 -31 -5
-14 -4 -14 4 -2 8 10 7 19 -1 29 -10 12 -9 14 3 9 9 -3 24 0 35 8 10 8 13 14
6 14 -7 0 -9 5 -6 10 5 8 11 7 20 0 20 -16 40 -3 24 16 -8 9 -8 14 -1 14 6 0
16 -8 21 -17 6 -10 11 -13 11 -6 0 6 -5 15 -10 18 -8 5 -8 11 -1 19 8 9 7 13
-4 13 -8 0 -12 -4 -10 -8 7 -10 -25 -20 -37 -12 -7 4 -8 1 -3 -8 6 -11 5 -11
-5 -2 -10 9 -9 15 6 30 16 17 17 17 11 1 -3 -10 -2 -18 3 -18 10 0 14 13 11
40 -1 11 1 10 9 -3 6 -9 16 -15 22 -11 6 4 5 10 -3 15 -11 7 -10 9 4 9 10 0
15 5 12 10 -3 6 -1 10 5 10 7 0 10 -7 6 -15 -3 -9 0 -15 9 -15 9 0 12 -6 9
-17 -5 -14 -4 -15 4 -4 8 11 10 11 14 0 3 -8 8 -11 12 -8 4 4 0 14 -9 23 -17
17 -16 18 15 18 35 0 41 -2 35 -12 -4 -6 1 -7 11 -3 15 5 15 7 -2 17 -21 12
-25 47 -6 54 6 2 12 0 12 -6 0 -5 11 -14 25 -20 21 -10 26 -9 36 9 6 11 8 23
6 26 -3 2 -8 -5 -12 -16 -5 -17 -10 -19 -26 -10 -11 5 -17 14 -14 20 4 5 1 9
-4 9 -6 0 -11 8 -11 18 1 16 1 16 11 -1 6 -10 15 -14 22 -10 7 4 6 0 -2 -10
-7 -9 -9 -17 -5 -17 5 0 15 9 22 21 8 12 9 18 3 14 -6 -3 -11 -1 -11 5 0 6 -4
8 -10 5 -5 -3 -10 -2 -10 3 0 6 7 13 16 16 24 9 31 7 14 -4 -12 -8 -10 -10 9
-10 16 0 21 4 18 15 -4 8 -1 17 5 21 6 4 8 3 5 -3 -4 -7 2 -11 16 -11 12 0 37
-2 54 -4 18 -3 30 -2 28 2 -6 10 21 21 29 13 11 -11 6 -24 -6 -17 -7 5 -8 3
-3 -5 10 -18 27 2 19 23 -4 11 -13 15 -25 11 -11 -4 -19 -2 -19 3 0 17 41 22
47 5 5 -12 7 -12 14 -1 5 7 19 13 31 13 15 0 22 6 20 16 -1 12 6 15 28 14 16
-1 27 2 24 7 -3 4 0 8 6 8 7 0 10 6 7 14 -6 14 10 36 27 36 6 0 5 -5 -2 -12
-7 -7 -12 -16 -12 -20 0 -5 14 6 31 24 26 28 29 30 24 11 -4 -13 -2 -23 3 -23
5 0 9 6 10 13 5 52 19 80 36 69 5 -3 6 1 1 8 -6 10 -16 5 -38 -20 -24 -27 -28
-29 -22 -10 4 13 3 20 -2 17 -5 -3 -9 3 -9 14 0 19 1 19 13 3 7 -10 16 -14 20
-11 3 4 3 7 -2 7 -4 0 -2 7 5 15 10 13 16 13 40 0 15 -8 30 -11 34 -8 3 4 6 1
6 -5 0 -7 5 -12 10 -12 6 0 5 8 -2 20 -14 21 -34 28 -22 8 4 -7 3 -9 -1 -5 -5
4 -10 14 -11 22 -2 12 2 12 17 5 17 -10 23 -6 20 12 0 4 6 5 15 1 18 -7 12
-29 -7 -25 -8 2 -4 -6 8 -17 23 -22 46 -30 25 -9 -19 19 -14 29 8 16 16 -10
22 -10 32 1 11 11 9 12 -9 6 -18 -5 -22 -3 -17 9 3 8 11 14 17 12 7 -1 9 -1 4
1 -14 9 4 22 21 16 9 -3 14 -3 10 1 -3 4 -14 9 -25 10 -10 2 -17 6 -15 9 1 4
2 13 2 20 0 7 5 5 10 -5 7 -10 17 -14 32 -10 15 3 19 2 14 -7 -4 -6 -3 -18 3
-25 6 -7 9 -22 5 -32 -5 -18 -5 -18 6 -1 9 14 9 21 0 32 -6 8 -8 20 -4 26 5 9
9 8 14 -5 3 -10 10 -17 15 -16 5 1 13 -7 17 -17 7 -17 8 -17 5 0 -1 10 -6 17
-12 17 -5 -1 -12 7 -16 17 -3 10 -11 19 -18 19 -6 1 -17 2 -23 3 -10 1 -9 4 1
10 9 6 22 4 37 -6 13 -8 29 -13 36 -10 9 4 8 6 -3 6 -9 1 -23 9 -30 18 -12 15
-12 16 1 8 33 -20 106 -25 103 -7 -2 7 2 12 9 12 6 0 8 3 5 6 -4 4 -14 1 -23
-7 -16 -13 -16 -12 -6 8 9 16 9 24 0 29 -7 4 -8 3 -4 -4 4 -7 3 -12 -3 -12
-16 0 -22 18 -9 23 20 6 48 -4 41 -16 -3 -6 -1 -7 5 -3 11 6 16 -6 13 -26 0
-5 3 -8 9 -8 13 0 13 6 0 31 -9 15 -7 19 5 19 9 0 13 -4 10 -10 -3 -5 -1 -10
5 -10 7 0 10 6 7 14 -5 13 18 31 36 28 4 -1 7 3 7 9 0 5 4 8 9 5 5 -4 12 0 14
6 4 10 6 10 6 0 1 -7 6 -10 11 -7 6 4 10 3 9 -2 -4 -23 3 -24 23 -2 14 17 19
19 15 7 -5 -13 -1 -18 13 -18 11 0 20 5 20 10 0 6 -4 10 -10 10 -5 0 -10 5
-10 11 0 8 5 7 15 -1 9 -7 13 -21 10 -30 -3 -10 2 -23 12 -31 15 -11 16 -11 6
1 -18 19 -16 35 1 21 11 -10 16 -6 25 16 8 19 10 21 7 6 -2 -13 3 -28 13 -35
14 -12 15 -11 2 5 -15 19 -9 22 19 7 13 -7 21 -7 25 0 4 6 11 8 16 4 6 -3 3
-12 -8 -21 -10 -8 -12 -11 -4 -7 7 3 18 0 23 -7 8 -11 9 -10 4 4 -3 9 -1 17 3
17 5 0 12 7 15 16 3 8 2 12 -4 9 -6 -3 -10 -2 -10 4 0 5 9 9 19 8 11 0 17 -5
15 -9 -5 -8 10 -12 35 -9 7 2 10 -3 6 -9 -4 -6 -1 -9 7 -8 8 2 13 -5 12 -18
-1 -11 5 -21 12 -21 10 0 11 4 3 14 -6 7 -9 13 -5 13 4 0 -1 11 -10 25 -9 14
-14 28 -10 32 3 3 6 1 6 -5 0 -6 11 -9 25 -6 14 2 25 0 25 -5 0 -6 -10 -8 -22
-6 -17 4 -19 2 -9 -8 13 -13 73 -19 65 -6 -3 5 2 9 11 9 9 0 14 -4 11 -9 -4
-5 2 -8 11 -7 10 2 22 -2 26 -8 6 -7 7 -6 4 4 -5 20 52 41 71 26 9 -7 16 -6
21 3 6 10 10 9 14 -4 4 -9 3 -13 -3 -10 -6 3 -10 1 -10 -5 0 -7 6 -10 13 -7 6
2 20 -3 31 -12 15 -13 14 -9 -5 23 l-22 39 22 -12 c12 -7 19 -16 16 -21 -3 -5
0 -12 6 -16 8 -5 9 -3 5 5 -10 15 25 11 37 -4 5 -5 5 1 2 15 -5 19 -4 22 4 10
6 -8 11 -11 11 -6 0 5 6 3 14 -3 15 -13 63 -25 52 -13 -4 4 -13 7 -19 7 -5 0
-12 7 -14 15 -4 12 -3 13 5 1 8 -11 11 -10 15 5 4 18 5 18 6 1 0 -10 7 -17 14
-14 6 2 11 9 10 15 -2 6 4 9 13 5 12 -4 13 -8 3 -14 -15 -9 -22 -46 -10 -53 4
-3 7 6 5 20 -2 19 1 24 12 20 13 -5 18 5 15 32 -1 6 2 12 8 12 10 0 8 -40 -3
-58 -3 -6 -1 -14 5 -18 7 -4 9 -3 6 3 -4 6 0 19 8 29 15 19 15 18 9 -1 -3 -11
3 -5 14 14 11 19 22 29 26 23 3 -6 0 -12 -6 -15 -9 -3 -8 -10 6 -23 10 -11 16
-14 13 -9 -3 6 1 21 9 35 14 25 14 25 9 -8 -4 -22 -2 -31 5 -27 5 3 10 17 10
31 0 29 7 30 33 7 19 -17 20 -17 8 5 -9 18 -9 22 1 20 7 -2 12 2 11 9 -1 6 8
10 23 8 15 -1 23 2 21 9 -2 6 -12 10 -22 8 -11 -2 -14 1 -10 8 4 6 13 9 21 6
20 -8 17 11 -3 23 -26 15 -11 13 30 -4 26 -11 38 -12 43 -3 4 6 3 9 -2 6 -5
-3 -20 -2 -33 3 -18 7 -21 12 -12 23 9 11 8 15 -5 20 -9 3 -20 4 -24 1 -5 -3
-7 3 -6 12 2 10 -4 23 -13 30 -13 10 -11 11 14 7 21 -3 26 -2 15 5 -8 5 -18 7
-22 5 -7 -5 -12 9 -10 27 1 3 -6 6 -13 6 -9 0 -11 -4 -6 -11 5 -6 5 -20 0 -31
-9 -18 -9 -18 -5 3 4 20 1 22 -29 20 -20 -1 -39 5 -50 15 -9 10 -20 15 -25 12
-5 -3 -22 -7 -39 -9 -26 -3 -29 -1 -20 10 8 10 8 14 1 14 -6 0 -18 -10 -27
-22 -15 -21 -16 -21 -13 -4 2 16 -3 20 -28 21 -18 0 -40 7 -49 15 -10 8 -26
16 -37 16 -35 3 -38 4 -36 15 2 6 -3 14 -11 17 -9 3 -11 0 -6 -8 5 -8 4 -11
-3 -6 -6 4 -9 13 -6 20 3 7 -3 19 -12 27 -15 12 -16 12 -10 0 6 -9 5 -12 -5
-9 -8 3 -13 12 -11 19 1 10 -2 9 -11 -3 -22 -27 -67 -28 -67 0 1 16 2 16 13 0
9 -11 18 -14 28 -7 12 7 11 9 -3 9 -9 0 -18 5 -20 11 -2 5 -11 7 -21 4 -9 -4
-15 -11 -12 -15 3 -4 -2 -13 -10 -20 -12 -10 -14 -8 -10 7 2 10 6 26 10 35 5
13 2 17 -13 15 -12 0 -18 -5 -16 -9 3 -5 10 -5 16 -2 6 4 8 3 5 -2 -5 -8 -24
-9 -70 -5 -5 1 -6 5 -3 9 2 4 -4 14 -16 21 -11 7 -17 8 -14 3 7 -12 -13 -21
-32 -15 -6 3 -9 10 -6 16 5 8 3 8 -6 0 -11 -10 -16 -9 -27 5 -8 9 -12 11 -8 5
3 -7 2 -20 -3 -29 -8 -15 -10 -15 -15 0 -5 12 -3 15 6 10 7 -4 9 -3 4 2 -5 5
-26 9 -47 10 -34 0 -38 -2 -35 -23 1 -12 -2 -20 -6 -17 -5 3 -9 14 -9 25 0 10
-5 19 -11 19 -5 0 -7 -4 -4 -10 3 -6 -1 -7 -10 -4 -13 5 -13 9 -3 23 7 9 1 6
-13 -7 -17 -15 -32 -20 -44 -16 -13 5 -16 4 -11 -4 5 -8 2 -10 -8 -6 -9 3 -16
1 -16 -5 0 -6 -9 -2 -21 10 -11 11 -24 17 -27 13 -4 -3 -1 -9 6 -11 6 -3 12
-10 12 -16 -1 -7 -12 2 -26 18 -15 17 -23 24 -19 16 6 -9 4 -12 -3 -7 -13 8
-16 -5 -4 -20 4 -5 0 -2 -8 7 -9 9 -23 15 -33 13 -9 -1 -15 2 -11 7 3 5 10 6
16 3 7 -4 8 -2 4 4 -4 7 -3 12 3 12 5 0 12 -6 14 -12 4 -10 6 -10 6 -1 2 21
-20 26 -38 9 -15 -14 -20 -14 -29 -3 -7 8 -9 17 -5 20 3 4 2 7 -4 7 -6 0 -10
-12 -10 -26z m370 -38 c4 -9 -3 -12 -21 -10 -34 3 -34 3 -28 12 8 13 44 11 49
-2z m-299 -5 c4 -5 -3 -7 -14 -4 -23 6 -26 13 -6 13 8 0 17 -4 20 -9z m196 1
c0 -5 -7 -9 -15 -9 -8 0 -12 4 -9 9 3 4 9 8 15 8 5 0 9 -4 9 -8z m175 -2 c3
-5 1 -10 -4 -10 -6 0 -11 5 -11 10 0 6 2 10 4 10 3 0 8 -4 11 -10z m55 0 c0
-5 -5 -10 -11 -10 -5 0 -7 5 -4 10 3 6 8 10 11 10 2 0 4 -4 4 -10z m-818 -19
c-4 -11 -7 -12 -10 -2 -4 11 -6 11 -13 0 -4 -7 -11 -10 -16 -6 -8 9 11 24 31
24 9 0 12 -7 8 -16z m1034 -47 c-12 -8 -13 -14 -3 -25 7 -7 2 -5 -10 5 -30 25
-29 34 2 32 21 -1 23 -3 11 -12z m-1172 -9 c-4 -8 -11 -15 -16 -15 -6 0 -5 6
2 15 7 8 14 15 16 15 2 0 1 -7 -2 -15z m57 -8 c-10 -9 -11 -8 -5 6 3 10 9 15
12 12 3 -3 0 -11 -7 -18z m-262 -54 c-12 -14 -12 -16 2 -11 9 3 16 1 16 -6 0
-6 -8 -12 -17 -12 -19 0 -23 27 -6 38 18 12 19 9 5 -9z m1685 -21 c3 -5 -1 -9
-9 -9 -8 0 -12 4 -9 9 3 4 7 8 9 8 2 0 6 -4 9 -8z m-37 -18 c-3 -3 -12 -4 -19
-1 -8 3 -5 6 6 6 11 1 17 -2 13 -5z m-1812 -34 c3 -5 1 -10 -4 -10 -6 0 -11 5
-11 10 0 6 2 10 4 10 3 0 8 -4 11 -10z m-115 -20 c0 -5 -5 -10 -11 -10 -5 0
-7 5 -4 10 3 6 8 10 11 10 2 0 4 -4 4 -10z m1320 -124 c0 -2 -7 -7 -16 -10 -8
-3 -12 -2 -9 4 6 10 25 14 25 6z m-103 -36 c-1 -21 -10 -18 -13 5 -1 8 2 15 6
15 5 0 8 -9 7 -20z m176 -6 c-7 -19 -10 -18 -16 5 -3 13 -1 18 9 14 7 -2 10
-11 7 -19z m-101 -16 c-6 -6 -12 -6 -17 3 -5 8 -4 10 3 5 7 -4 12 0 13 11 0
12 2 13 6 5 3 -8 1 -18 -5 -24z m205 17 c0 -8 -6 -16 -14 -19 -11 -4 -11 -1
-3 14 13 24 17 25 17 5z m88 -3 c-3 -3 -11 0 -18 7 -9 10 -8 11 6 5 10 -3 15
-9 12 -12z m162 -4 c-3 -8 -6 -5 -6 6 -1 11 2 17 5 13 3 -3 4 -12 1 -19z
m-773 -3 c-5 -11 -2 -13 10 -9 9 3 16 10 16 15 0 5 5 9 10 9 19 0 10 -17 -15
-28 -25 -12 -42 -1 -30 18 9 15 15 12 9 -5z m350 -1 c3 -8 2 -12 -4 -9 -6 3
-10 10 -10 16 0 14 7 11 14 -7z m231 7 c3 -5 1 -12 -5 -16 -5 -3 -10 1 -10 9
0 18 6 21 15 7z m-635 -15 c0 -2 -7 -7 -16 -10 -8 -3 -12 -2 -9 4 6 10 25 14
25 6z m-12 -49 c18 4 21 2 16 -11 -3 -9 -8 -16 -10 -16 -13 0 -54 25 -54 33 0
5 6 5 13 -1 7 -6 23 -9 35 -5z m-156 -67 c3 -3 -1 -14 -9 -25 -15 -19 -15 -19
-8 4 5 16 4 21 -4 17 -7 -5 -9 -1 -5 9 4 9 9 12 13 8 3 -4 9 -10 13 -13z
m-112 -30 c0 -5 -2 -10 -4 -10 -3 0 -8 5 -11 10 -3 6 -1 10 4 10 6 0 11 -4 11
-10z m-100 -54 c0 -2 -7 -7 -16 -10 -8 -3 -12 -2 -9 4 6 10 25 14 25 6z m15
-26 c-3 -5 -1 -10 5 -10 6 0 8 -5 5 -10 -4 -6 -11 -8 -16 -5 -12 8 -11 35 2
35 5 0 7 -4 4 -10z m-29 -16 c-1 -7 -7 -18 -14 -26 -6 -8 -9 -17 -6 -21 8 -7
-32 -28 -48 -25 -7 2 -12 -5 -12 -14 1 -11 -5 -15 -17 -13 -10 2 -21 -1 -25
-6 -4 -6 -11 -6 -19 1 -8 7 -20 8 -27 4 -10 -6 -9 -3 1 9 7 9 21 17 31 17 10
0 21 7 24 16 3 8 10 12 16 9 5 -3 10 -1 10 5 0 7 7 10 15 6 19 -7 47 3 39 15
-3 5 2 9 11 9 9 0 13 5 10 11 -4 6 -14 8 -22 5 -8 -3 -11 -2 -8 3 8 14 43 9
41 -5z m-46 -24 c0 -5 -2 -10 -4 -10 -3 0 -8 5 -11 10 -3 6 -1 10 4 10 6 0 11
-4 11 -10z m-1333 -42 c-3 -8 -6 -5 -6 6 -1 11 2 17 5 13 3 -3 4 -12 1 -19z
m1193 -39 c0 -5 -4 -8 -9 -4 -5 3 -17 -5 -25 -17 -9 -12 -16 -17 -16 -11 0 7
-7 10 -15 7 -8 -4 -15 -1 -15 4 0 6 9 9 19 7 11 -2 25 3 32 11 14 17 29 18 29
3z m-4 -31 c4 -7 3 -8 -4 -4 -7 4 -12 2 -12 -5 0 -7 -3 -10 -6 -6 -6 5 3 27
11 27 2 0 7 -5 11 -12z m-1292 -10 c-3 -4 -9 -8 -15 -8 -5 0 -9 4 -9 8 0 5 7
9 15 9 8 0 12 -4 9 -9z m1096 -52 c0 -3 -4 -8 -10 -11 -5 -3 -10 -1 -10 4 0 6
5 11 10 11 6 0 10 -2 10 -4z m-50 -30 c0 -2 -7 -7 -16 -10 -8 -3 -12 -2 -9 4
6 10 25 14 25 6z m28 -21 c-2 -6 -7 -10 -13 -10 -5 0 -16 -4 -22 -8 -20 -12
-15 4 5 19 19 15 35 14 30 -1z m-1274 -95 c-6 -6 -10 -3 -10 10 0 13 4 16 10
10 7 -7 7 -13 0 -20z m1119 1 c5 -1 5 -7 0 -13 -4 -7 -8 -16 -8 -20 0 -12 -19
-11 -23 1 -2 6 1 11 7 11 6 0 11 4 11 8 0 5 -7 9 -15 9 -8 0 -15 -4 -15 -9 0
-4 -5 -8 -11 -8 -8 0 -8 4 0 14 7 8 20 13 29 11 9 -2 21 -4 25 -4z m42 -11 c3
-5 2 -10 -4 -10 -5 0 -13 5 -16 10 -3 6 -2 10 4 10 5 0 13 -4 16 -10z m-141
-56 c10 -6 16 -16 12 -23 -4 -6 -12 -9 -17 -6 -5 4 -17 1 -26 -4 -10 -6 -13
-11 -6 -11 17 0 5 -27 -12 -27 -9 0 -11 4 -6 11 16 19 16 23 1 41 -12 15 -12
17 -1 10 11 -6 13 -4 9 7 -7 18 17 19 46 2z m-1094 -11 c0 -3 -7 -3 -15 1 -18
7 -19 -5 -2 -24 10 -12 9 -12 -6 0 -16 12 -19 11 -24 -8 -3 -12 -10 -22 -16
-22 -6 0 -7 3 -4 7 4 3 1 13 -6 21 -10 13 -9 15 5 9 12 -4 21 0 28 13 9 16 40
19 40 3z m-102 -89 c-1 -5 -9 -9 -16 -10 -10 -2 -11 1 -1 12 12 14 24 13 17
-2z m-87 -111 c13 -16 12 -17 -3 -4 -17 13 -22 21 -14 21 2 0 10 -8 17 -17z
m943 -78 c-7 -16 -24 -21 -24 -6 0 8 7 13 27 20 1 1 0 -6 -3 -14z m-1024 -29
c0 -2 -8 -10 -17 -17 -16 -13 -17 -12 -4 4 13 16 21 21 21 13z m-57 -40 c4
-11 1 -13 -11 -9 -14 6 -15 4 -5 -8 10 -13 10 -16 -1 -16 -8 0 -12 7 -11 16 2
9 4 19 4 24 2 13 19 8 24 -7z m892 -156 c3 -5 2 -10 -4 -10 -5 0 -13 5 -16 10
-3 6 -2 10 4 10 5 0 13 -4 16 -10z m-1161 -215 c-4 -8 -11 -12 -16 -9 -6 4 -5
10 3 15 19 12 19 11 13 -6z m-41 -70 c-3 -9 -8 -14 -10 -11 -3 3 -2 9 2 15 9
16 15 13 8 -4z m-112 -172 c13 -16 12 -17 -3 -4 -17 13 -22 21 -14 21 2 0 10
-8 17 -17z m-61 -83 c0 -5 -2 -10 -4 -10 -3 0 -8 5 -11 10 -3 6 -1 10 4 10 6
0 11 -4 11 -10z m970 -86 c0 -8 -19 -13 -24 -6 -3 5 1 9 9 9 8 0 15 -2 15 -3z
m-1050 -73 c0 -6 -4 -12 -8 -15 -5 -3 -9 1 -9 9 0 8 4 15 9 15 4 0 8 -4 8 -9z
m-110 -121 c0 -5 -4 -10 -10 -10 -5 0 -10 5 -10 10 0 6 5 10 10 10 6 0 10 -4
10 -10z m40 -34 c0 -2 -8 -10 -17 -17 -16 -13 -17 -12 -4 4 13 16 21 21 21 13z
m955 -44 c-1 -27 -19 -40 -30 -23 -4 7 0 8 11 4 13 -5 15 -3 8 8 -13 21 -13
36 0 36 7 0 12 -12 11 -25z m-1028 -14 c-3 -8 -6 -5 -6 6 -1 11 2 17 5 13 3
-3 4 -12 1 -19z m993 -33 c7 -8 9 -15 5 -15 -4 0 -2 -7 5 -15 7 -9 8 -15 2
-15 -9 0 -22 22 -21 36 0 4 -5 11 -13 15 -8 5 -9 9 -2 9 6 0 17 -7 24 -15z
m-30 -11 c0 -8 -19 -13 -24 -6 -3 5 1 9 9 9 8 0 15 -2 15 -3z m-10 -74 c0 -5
-7 -7 -15 -4 -8 4 -15 8 -15 10 0 2 7 4 15 4 8 0 15 -4 15 -10z m-1045 -120
c3 -6 -1 -7 -9 -4 -18 7 -21 14 -7 14 6 0 13 -4 16 -10z m-70 -91 c-7 -11 -35
-12 -35 -1 0 4 9 8 20 9 11 1 18 -2 15 -8z m-22 -33 c4 -10 1 -13 -8 -9 -8 3
-12 9 -9 14 7 12 11 11 17 -5z m-22 -119 c-6 -8 -7 -18 -3 -22 4 -5 2 -5 -5
-1 -6 3 -14 2 -18 -4 -3 -5 1 -10 9 -10 9 0 16 -3 17 -7 0 -5 2 -16 4 -26 2
-9 -1 -15 -6 -11 -5 3 -7 9 -4 14 3 5 1 11 -5 15 -5 3 -10 -1 -10 -10 0 -9 -4
-14 -8 -11 -14 8 -7 44 13 66 20 22 34 28 16 7z m22 -22 c-3 -9 -8 -14 -10
-11 -3 3 -2 9 2 15 9 16 15 13 8 -4z m760 -96 c12 -12 16 -19 10 -15 -7 4 -22
2 -34 -5 -12 -6 -19 -7 -15 -1 3 6 0 13 -6 15 -8 3 -6 6 5 6 10 1 15 6 12 11
-11 17 5 11 28 -11z m-882 -196 c13 -16 12 -17 -3 -4 -17 13 -22 21 -14 21 2
0 10 -8 17 -17z m606 -5 c-3 -8 -6 -5 -6 6 -1 11 2 17 5 13 3 -3 4 -12 1 -19z
m3 -33 c-12 -15 -30 -12 -30 6 0 5 10 9 21 9 18 0 19 -2 9 -15z m-340 -37 c0
-6 -3 -8 -6 -5 -4 3 -16 2 -28 -4 -20 -10 -20 -10 -2 5 24 19 36 20 36 4z
m-160 -52 c0 -3 -4 -8 -10 -11 -5 -3 -10 -1 -10 4 0 6 5 11 10 11 6 0 10 -2
10 -4z m-439 -299 c-6 -8 -8 -17 -4 -21 4 -4 0 -4 -10 0 -9 3 -17 10 -17 16 0
5 4 7 9 3 5 -3 12 -1 16 5 3 5 9 10 12 10 3 0 0 -6 -6 -13z m-86 -127 c3 -6
-1 -7 -9 -4 -18 7 -21 14 -7 14 6 0 13 -4 16 -10z m-71 -98 c2 -4 -4 -9 -15
-9 -11 -1 -17 2 -14 8 7 11 22 12 29 1z m-4 -63 c0 -4 -5 -11 -12 -15 -7 -4
-8 -3 -4 4 4 6 2 22 -4 34 -11 22 -10 22 4 4 9 -11 16 -23 16 -27z m77 9 c2
-17 0 -19 -7 -8 -5 8 -6 18 -4 22 8 12 10 10 11 -14z m-181 -113 c1 -8 -1 -15
-6 -15 -10 0 -20 26 -13 34 8 8 16 -1 19 -19z m-23 -45 c-3 -12 -8 -19 -11
-16 -5 6 5 36 12 36 2 0 2 -9 -1 -20z m-48 -31 c11 -16 1 -19 -13 -3 -7 8 -8
14 -3 14 5 0 13 -5 16 -11z m80 1 c-3 -5 -12 -10 -18 -10 -7 0 -6 4 3 10 19
12 23 12 15 0z m24 -30 c-7 -5 -19 -6 -26 -3 -11 5 -12 8 -2 13 7 5 19 6 26 3
11 -5 12 -8 2 -13z m-129 -15 c0 -1 -10 -10 -22 -21 -14 -12 -18 -13 -10 -3 6
9 10 18 7 21 -3 2 2 5 10 5 8 0 15 -1 15 -2z m34 -13 c3 -5 -1 -9 -9 -9 -8 0
-12 4 -9 9 3 4 7 8 9 8 2 0 6 -4 9 -8z m-11 -77 c9 -21 -9 -27 -24 -8 -10 12
-10 14 -1 9 6 -4 12 -2 12 3 0 16 7 13 13 -4z m-86 -10 c0 -8 -4 -12 -9 -9 -5
3 -6 10 -3 15 9 13 12 11 12 -6z m72 -42 c-7 -10 -14 -19 -15 -21 -1 -2 -4 4
-8 13 -3 9 -2 13 3 10 5 -3 12 -1 16 5 3 5 9 10 12 10 3 0 -1 -8 -8 -17z
m-169 -67 c0 -3 -4 -8 -10 -11 -5 -3 -10 -1 -10 4 0 6 5 11 10 11 6 0 10 -2
10 -4z m-25 -26 c3 -5 1 -10 -4 -10 -6 0 -11 5 -11 10 0 6 2 10 4 10 3 0 8 -4
11 -10z m40 -19 c3 -5 2 -12 -3 -15 -5 -3 -9 1 -9 9 0 17 3 19 12 6z m-78 -86
c0 -8 -4 -12 -9 -9 -5 3 -6 10 -3 15 9 13 12 11 12 -6z m-37 -69 c0 -2 -7 -7
-16 -10 -8 -3 -12 -2 -9 4 6 10 25 14 25 6z m-169 -119 c-10 -9 -11 -8 -5 6 3
10 9 15 12 12 3 -3 0 -11 -7 -18z m-20 -24 c7 -10 10 -15 5 -11 -5 4 -18 3
-30 -3 -19 -9 -19 -9 -4 4 10 8 15 17 11 20 -3 4 -4 7 -1 7 3 0 12 -8 19 -17z
m-123 -135 c-7 -7 -20 -14 -28 -16 -8 -1 -4 6 10 17 27 21 41 20 18 -1z m82
-43 c0 -6 -56 -35 -67 -35 -9 0 48 38 60 39 4 1 7 -1 7 -4z m-145 -25 c3 -5 1
-10 -4 -10 -6 0 -11 5 -11 10 0 6 2 10 4 10 3 0 8 -4 11 -10z m95 -26 c0 -8
-19 -13 -24 -6 -3 5 1 9 9 9 8 0 15 -2 15 -3z m-76 -52 c2 -4 -4 -8 -14 -8
-10 0 -16 4 -14 8 3 4 9 8 14 8 5 0 11 -4 14 -8z m0 -31 c3 -4 -4 -17 -15 -27
-18 -16 -19 -16 -13 -1 3 9 10 17 16 17 5 0 6 5 3 10 -3 6 -4 10 -1 10 3 0 7
-4 10 -9z m-67 -16 c0 -8 -4 -12 -9 -9 -5 3 -6 10 -3 15 9 13 12 11 12 -6z
m-102 -85 c-3 -5 -12 -10 -18 -10 -7 0 -6 4 3 10 19 12 23 12 15 0z m-63 -26
c-12 -8 -19 -20 -16 -26 5 -7 2 -8 -5 -3 -9 5 -7 13 10 31 12 13 25 22 28 19
2 -3 -5 -12 -17 -21z m124 -23 c0 -11 -4 -17 -8 -15 -10 7 -10 34 0 34 4 0 8
-9 8 -19z m-76 -39 c0 -5 -7 -9 -15 -9 -8 0 -12 4 -9 9 3 4 9 8 15 8 5 0 9 -4
9 -8z m-130 -64 c0 -5 -9 -4 -20 2 -11 6 -20 12 -20 14 0 2 9 2 20 -1 11 -3
20 -9 20 -15z m33 -11 c7 3 8 2 4 -2 -14 -16 -36 -14 -29 3 4 10 7 12 10 4 2
-7 9 -9 15 -5z"/>
<path d="M4731 5287 c-6 -6 -11 -7 -11 -2 0 5 -7 -1 -16 -13 -8 -12 -20 -19
-26 -16 -7 4 -8 2 -4 -5 6 -8 12 -9 20 -2 7 6 17 7 21 3 5 -4 5 -2 2 4 -7 13
19 29 41 25 16 -3 15 6 -2 12 -7 3 -19 0 -25 -6z"/>
<path d="M4116 4925 c-3 -8 -1 -15 4 -15 6 0 10 5 10 11 0 8 6 7 18 -2 15 -13
16 -12 3 4 -17 21 -27 22 -35 2z"/>
<path d="M5326 6059 c3 -5 9 -7 14 -4 4 3 10 -1 13 -7 4 -10 7 -10 18 0 8 7
10 13 4 12 -5 -2 -12 -1 -15 0 -19 7 -39 7 -34 -1z"/>
<path d="M5475 6060 c3 -5 8 -10 11 -10 2 0 4 5 4 10 0 6 -5 10 -11 10 -5 0
-7 -4 -4 -10z"/>
<path d="M5434 6053 c9 -16 -12 -27 -28 -14 -17 14 -29 2 -15 -15 8 -10 16
-11 30 -4 10 6 23 9 30 8 6 -2 13 3 15 10 1 7 0 8 -3 2 -3 -7 -11 -4 -20 7 -8
10 -12 13 -9 6z"/>
<path d="M5050 6041 c0 -6 4 -13 10 -16 6 -3 7 1 4 9 -7 18 -14 21 -14 7z"/>
<path d="M5143 6034 c0 -7 6 -10 14 -7 7 3 13 8 13 12 0 4 -6 8 -13 8 -8 0
-14 -6 -14 -13z"/>
<path d="M5763 6005 c0 -8 4 -12 9 -9 5 3 6 10 3 15 -9 13 -12 11 -12 -6z"/>
<path d="M5892 6001 c-11 -7 -11 -9 0 -14 9 -3 15 1 15 9 0 8 -1 14 -1 14 -1
0 -7 -4 -14 -9z"/>
<path d="M4800 5991 c0 -7 -5 -9 -12 -5 -7 5 -8 3 -3 -5 5 -9 10 -10 18 -2 6
6 8 14 4 18 -4 3 -7 1 -7 -6z"/>
<path d="M4670 5940 c-9 -6 -10 -10 -3 -10 6 0 15 5 18 10 8 12 4 12 -15 0z"/>
<path d="M6007 5937 c-7 -19 5 -35 25 -32 9 2 27 -5 39 -16 12 -10 31 -17 43
-15 11 2 27 -1 34 -7 9 -7 11 -6 6 8 -6 14 -4 16 6 10 8 -5 11 -4 7 2 -7 11
-36 11 -56 -2 -10 -6 -12 -4 -6 5 10 16 -14 31 -37 24 -11 -3 -18 0 -18 8 0
10 -3 9 -10 -2 -8 -13 -10 -13 -10 2 0 22 -16 32 -23 15z m88 -37 c3 -5 2 -10
-4 -10 -5 0 -13 5 -16 10 -3 6 -2 10 4 10 5 0 13 -4 16 -10z"/>
<path d="M6115 5931 c-3 -5 -2 -12 3 -15 5 -3 9 1 9 9 0 17 -3 19 -12 6z"/>
<path d="M4643 5915 c0 -8 4 -12 9 -9 5 3 6 10 3 15 -9 13 -12 11 -12 -6z"/>
<path d="M4535 5900 c-3 -5 -1 -10 4 -10 6 0 11 5 11 10 0 6 -2 10 -4 10 -3 0
-8 -4 -11 -10z"/>
<path d="M6310 5860 c0 -5 5 -10 11 -10 5 0 7 5 4 10 -3 6 -8 10 -11 10 -2 0
-4 -4 -4 -10z"/>
<path d="M6285 5840 c3 -5 8 -10 11 -10 2 0 4 5 4 10 0 6 -5 10 -11 10 -5 0
-7 -4 -4 -10z"/>
<path d="M4330 5824 c0 -11 29 -34 34 -26 2 4 -4 13 -15 20 -10 7 -19 10 -19
6z"/>
<path d="M4233 5769 c-2 -23 3 -25 10 -4 4 8 3 16 -1 19 -4 3 -9 -4 -9 -15z"/>
<path d="M6395 5780 c-3 -5 -1 -10 4 -10 6 0 11 5 11 10 0 6 -2 10 -4 10 -3 0
-8 -4 -11 -10z"/>
<path d="M4175 5759 c-4 -6 -5 -12 -2 -15 2 -3 7 2 10 11 7 17 1 20 -8 4z"/>
<path d="M6450 5740 c0 -5 5 -10 11 -10 5 0 7 5 4 10 -3 6 -8 10 -11 10 -2 0
-4 -4 -4 -10z"/>
<path d="M4030 5679 c0 -5 5 -7 10 -4 6 3 10 8 10 11 0 2 -4 4 -10 4 -5 0 -10
-5 -10 -11z"/>
<path d="M3910 5638 c0 -6 6 -8 14 -5 7 3 19 1 25 -4 8 -6 8 -5 1 3 -13 15
-40 19 -40 6z"/>
<path d="M6371 5636 c-9 -11 -9 -16 0 -22 8 -5 9 -3 4 6 -6 10 -4 12 8 7 11
-4 14 -2 10 9 -6 17 -8 17 -22 0z"/>
<path d="M6320 5614 c0 -5 6 -18 13 -29 12 -15 15 -16 22 -4 5 8 4 10 0 6 -5
-4 -15 3 -22 15 -7 13 -12 18 -13 12z"/>
<path d="M5360 5591 c-8 -6 -18 -7 -22 -5 -11 7 -10 -8 2 -26 8 -13 10 -12 10
3 0 9 5 17 11 17 5 0 7 -4 4 -10 -4 -6 1 -7 11 -3 12 4 15 3 10 -5 -4 -8 -2
-10 8 -6 12 5 12 8 -2 25 -9 10 -17 19 -17 19 0 0 -7 -4 -15 -9z"/>
<path d="M5901 5590 c-11 -6 -9 -11 9 -20 12 -6 24 -9 28 -6 3 3 0 6 -7 6 -7
0 -10 4 -6 9 8 14 -8 21 -24 11z"/>
<path d="M5420 5581 c0 -9 30 -24 36 -18 2 1 -6 8 -16 15 -11 7 -20 8 -20 3z"/>
<path d="M6070 5581 c0 -6 4 -13 10 -16 6 -3 7 1 4 9 -7 18 -14 21 -14 7z"/>
<path d="M5870 5576 c0 -2 8 -10 18 -17 15 -13 16 -12 3 4 -13 16 -21 21 -21
13z"/>
<path d="M5670 5560 c0 -5 5 -10 11 -10 5 0 7 5 4 10 -3 6 -8 10 -11 10 -2 0
-4 -4 -4 -10z"/>
<path d="M6030 5560 c0 -5 5 -10 11 -10 5 0 7 5 4 10 -3 6 -8 10 -11 10 -2 0
-4 -4 -4 -10z"/>
<path d="M5506 5544 c-5 -14 -4 -15 9 -4 17 14 19 20 6 20 -5 0 -12 -7 -15
-16z"/>
<path d="M5753 5545 c0 -8 10 -23 21 -32 21 -18 21 -18 4 2 -9 11 -17 24 -16
28 0 5 -2 11 -4 13 -3 2 -5 -3 -5 -11z"/>
<path d="M5953 5547 c0 -8 6 -14 14 -14 9 0 10 4 2 14 -6 7 -12 13 -14 13 -1
0 -2 -6 -2 -13z"/>
<path d="M3755 5540 c3 -5 8 -10 11 -10 2 0 4 5 4 10 0 6 -5 10 -11 10 -5 0
-7 -4 -4 -10z"/>
<path d="M5428 5543 c7 -3 16 -2 19 1 4 3 -2 6 -13 5 -11 0 -14 -3 -6 -6z"/>
<path d="M5548 5538 c8 -9 11 -22 8 -27 -4 -5 -1 -13 5 -17 8 -5 9 -3 4 6 -6
9 -4 12 6 8 10 -4 15 1 15 12 0 10 -4 16 -9 13 -4 -2 -16 1 -25 9 -15 12 -16
11 -4 -4z"/>
<path d="M5790 5532 c9 -19 14 -21 26 -11 8 6 14 14 14 17 0 3 -5 1 -12 -6 -9
-9 -15 -7 -25 6 -13 15 -13 14 -3 -6z"/>
<path d="M5910 5546 c0 -2 7 -7 16 -10 8 -3 12 -2 9 4 -6 10 -25 14 -25 6z"/>
<path d="M5338 5522 c-5 -18 -3 -20 12 -12 9 5 21 6 25 2 5 -4 5 -1 1 6 -4 7
-11 10 -16 7 -4 -3 -10 0 -12 7 -3 7 -7 3 -10 -10z"/>
<path d="M5656 5527 c3 -10 9 -15 12 -12 3 3 0 11 -7 18 -10 9 -11 8 -5 -6z"/>
<path d="M5473 5515 c0 -8 4 -12 9 -9 4 3 8 9 8 15 0 5 -4 9 -8 9 -5 0 -9 -7
-9 -15z"/>
<path d="M5613 5514 c0 -7 7 -10 15 -6 11 4 13 1 7 -8 -5 -8 -4 -11 3 -6 6 4
9 12 6 20 -6 16 -31 17 -31 0z"/>
<path d="M5899 5513 c-13 -16 -12 -17 4 -4 9 7 17 15 17 17 0 8 -8 3 -21 -13z"/>
<path d="M5255 5501 c-3 -5 0 -13 6 -17 7 -4 9 -3 5 4 -3 5 0 13 6 15 9 4 10
6 1 6 -6 1 -14 -3 -18 -8z"/>
<path d="M5310 5505 c0 -5 5 -17 10 -25 5 -8 10 -10 10 -5 0 6 -5 17 -10 25
-5 8 -10 11 -10 5z"/>
<path d="M5393 5503 c4 -3 1 -13 -6 -22 -11 -14 -10 -14 6 -2 20 15 22 31 5
31 -6 0 -8 -3 -5 -7z"/>
<path d="M5709 5495 c5 -5 7 -18 6 -27 -2 -10 0 -20 5 -23 5 -3 7 3 5 12 -1
10 1 25 6 33 5 12 2 16 -11 16 -12 0 -16 -4 -11 -11z"/>
<path d="M5753 5503 c4 -3 1 -13 -6 -22 -11 -14 -10 -14 5 -2 16 12 16 31 1
31 -4 0 -3 -3 0 -7z"/>
<path d="M5825 5499 c-3 -4 2 -6 10 -5 21 3 28 13 10 13 -9 0 -18 -4 -20 -8z"/>
<path d="M5963 5498 c-11 -19 -13 -39 -1 -32 5 3 7 9 4 12 -3 3 -1 11 5 19 6
7 9 13 6 13 -3 0 -9 -6 -14 -12z"/>
<path d="M5512 5495 c4 -4 0 -14 -10 -21 -15 -12 -15 -12 6 -7 24 6 29 18 10
29 -7 4 -10 4 -6 -1z"/>
<path d="M5220 5480 c8 -5 20 -10 25 -10 6 0 3 5 -5 10 -8 5 -19 10 -25 10 -5
0 -3 -5 5 -10z"/>
<path d="M5280 5475 c-7 -9 -8 -15 -2 -15 5 0 12 7 16 15 3 8 4 15 2 15 -2 0
-9 -7 -16 -15z"/>
<path d="M5413 5477 c-4 -6 -1 -7 7 -2 10 6 12 4 7 -8 -9 -23 0 -22 12 1 8 14
6 19 -5 19 -8 0 -18 -5 -21 -10z"/>
<path d="M5590 5478 c0 -4 4 -8 9 -8 6 0 12 4 15 8 3 5 -1 9 -9 9 -8 0 -15 -4
-15 -9z"/>
<path d="M5776 5473 c-6 -14 -5 -15 5 -6 7 7 10 15 7 18 -3 3 -9 -2 -12 -12z"/>
<path d="M5859 5473 c-13 -16 -12 -17 4 -4 9 7 17 15 17 17 0 8 -8 3 -21 -13z"/>
<path d="M5913 5465 c0 -8 10 -23 21 -32 21 -18 21 -18 4 2 -9 11 -17 24 -16
28 0 5 -2 11 -4 13 -3 2 -5 -3 -5 -11z"/>
<path d="M5213 5463 c4 -6 3 -13 -2 -15 -5 -1 -3 -9 5 -16 12 -11 13 -9 11 7
-2 11 -7 24 -12 28 -4 5 -5 3 -2 -4z"/>
<path d="M5470 5461 c0 -6 4 -13 10 -16 6 -3 7 1 4 9 -7 18 -14 21 -14 7z"/>
<path d="M5547 5456 c5 -14 3 -17 -7 -11 -9 6 -11 4 -6 -4 5 -7 10 -10 14 -7
3 3 11 -2 19 -12 12 -16 13 -16 6 2 -5 14 -3 17 7 11 9 -6 11 -4 6 4 -5 7 -10
10 -14 7 -3 -3 -11 2 -19 12 -12 16 -13 16 -6 -2z"/>
<path d="M6050 5460 c0 -5 5 -10 11 -10 5 0 7 5 4 10 -3 6 -8 10 -11 10 -2 0
-4 -4 -4 -10z"/>
<path d="M6094 5462 c4 -3 14 -7 22 -8 9 -1 13 0 10 4 -4 3 -14 7 -22 8 -9 1
-13 0 -10 -4z"/>
<path d="M3583 5438 c1 -21 4 -24 14 -16 7 6 13 16 13 22 0 6 -4 5 -9 -3 -7
-11 -10 -10 -14 5 -3 12 -4 9 -4 -8z"/>
<path d="M5246 5443 c-6 -14 -5 -15 5 -6 7 7 10 15 7 18 -3 3 -9 -2 -12 -12z"/>
<path d="M5315 5450 c-8 -13 3 -30 18 -30 7 0 6 4 -3 10 -13 9 -13 11 0 20 9
6 10 10 3 10 -6 0 -15 -4 -18 -10z"/>
<path d="M5358 5453 c7 -3 16 -2 19 1 4 3 -2 6 -13 5 -11 0 -14 -3 -6 -6z"/>
<path d="M5394 5440 c0 -13 4 -16 10 -10 7 7 7 13 0 20 -6 6 -10 3 -10 -10z"/>
<path d="M3536 5438 c3 -5 10 -6 15 -3 13 9 11 12 -6 12 -8 0 -12 -4 -9 -9z"/>
<path d="M5080 5440 c0 -5 5 -10 10 -10 6 0 10 5 10 10 0 6 -4 10 -10 10 -5 0
-10 -4 -10 -10z"/>
<path d="M5665 5439 c-4 -6 -5 -12 -2 -15 2 -3 7 2 10 11 7 17 1 20 -8 4z"/>
<path d="M5835 5441 c3 -3 17 -6 31 -7 13 0 22 2 19 5 -3 3 -17 6 -31 7 -13 0
-22 -2 -19 -5z"/>
<path d="M5950 5446 c0 -2 7 -7 16 -10 8 -3 12 -2 9 4 -6 10 -25 14 -25 6z"/>
<path d="M6140 5440 c-9 -6 -10 -10 -3 -10 6 0 15 5 18 10 8 12 4 12 -15 0z"/>
<path d="M5357 5429 c7 -7 15 -10 18 -7 3 3 -2 9 -12 12 -14 6 -15 5 -6 -5z"/>
<path d="M5514 5425 c1 -8 8 -21 16 -28 12 -10 12 -9 2 4 -6 9 -9 18 -6 21 3
3 1 9 -4 12 -6 3 -9 -1 -8 -9z"/>
<path d="M5124 5402 c-9 -13 -14 -26 -11 -28 2 -2 9 7 16 20 9 15 19 22 31 19
10 -3 20 -1 23 4 13 21 -45 6 -59 -15z"/>
<path d="M5196 5413 c-6 -14 -5 -15 5 -6 7 7 10 15 7 18 -3 3 -9 -2 -12 -12z"/>
<path d="M5427 5412 c5 -11 3 -13 -7 -7 -9 5 -11 4 -6 -4 6 -9 12 -9 24 1 10
7 18 13 20 14 1 1 -6 4 -17 7 -15 3 -18 1 -14 -11z"/>
<path d="M5797 5408 c19 -21 31 -25 14 -5 -6 8 -9 16 -6 19 3 2 -2 5 -10 5
-13 0 -13 -3 2 -19z"/>
<path d="M5272 5411 c-11 -6 -9 -9 6 -13 15 -4 19 -2 15 8 -6 16 -4 16 -21 5z"/>
<path d="M5593 5406 c0 -13 40 -16 52 -4 4 4 -1 5 -12 4 -10 -2 -23 0 -29 5
-6 5 -11 4 -11 -5z"/>
<path d="M5694 5401 c0 -11 5 -17 13 -14 10 4 11 9 2 19 -15 18 -15 18 -15 -5z"/>
<path d="M5061 5401 c-10 -7 -7 -9 12 -8 15 1 27 5 27 10 0 10 -22 9 -39 -2z"/>
<path d="M5216 5402 c-3 -5 1 -9 9 -9 8 0 12 4 9 9 -3 4 -7 8 -9 8 -2 0 -6 -4
-9 -8z"/>
<path d="M5316 5393 c-6 -14 -5 -15 5 -6 7 7 10 15 7 18 -3 3 -9 -2 -12 -12z"/>
<path d="M5482 5401 c-11 -6 -9 -9 6 -13 15 -4 19 -2 15 8 -6 16 -4 16 -21 5z"/>
<path d="M5926 5402 c-3 -5 1 -9 9 -9 8 0 12 4 9 9 -3 4 -7 8 -9 8 -2 0 -6 -4
-9 -8z"/>
<path d="M6030 5399 c0 -5 5 -7 10 -4 6 3 10 8 10 11 0 2 -4 4 -10 4 -5 0 -10
-5 -10 -11z"/>
<path d="M6065 5400 c-3 -6 1 -7 9 -4 18 7 21 14 7 14 -6 0 -13 -4 -16 -10z"/>
<path d="M4937 5383 c-10 -10 -8 -33 3 -33 5 0 7 8 4 18 -5 14 -3 14 10 -2 9
-11 16 -15 16 -9 0 14 -25 34 -33 26z"/>
<path d="M5136 5382 c-7 -11 -2 -40 9 -49 4 -4 5 -2 1 5 -4 6 -2 12 3 12 6 0
11 5 11 11 0 5 -5 7 -12 3 -8 -5 -9 -2 -5 9 7 18 2 23 -7 9z"/>
<path d="M5174 5378 c-4 -7 -4 -10 1 -6 4 4 14 1 22 -7 8 -8 19 -15 25 -15 6
0 9 1 7 3 -2 1 -14 10 -26 20 -17 15 -23 16 -29 5z"/>
<path d="M5390 5380 c0 -5 5 -10 10 -10 6 0 10 5 10 10 0 6 -4 10 -10 10 -5 0
-10 -4 -10 -10z"/>
<path d="M5557 5377 c4 -7 -1 -8 -12 -3 -18 6 -18 6 -2 -12 9 -10 14 -22 10
-25 -3 -4 -1 -7 6 -7 8 0 11 6 7 16 -4 9 -2 22 4 29 7 8 5 12 -5 12 -8 0 -11
-5 -8 -10z"/>
<path d="M4988 5373 c7 -3 16 -2 19 1 4 3 -2 6 -13 5 -11 0 -14 -3 -6 -6z"/>
<path d="M5028 5373 c7 -3 16 -2 19 1 4 3 -2 6 -13 5 -11 0 -14 -3 -6 -6z"/>
<path d="M5071 5372 c-1 -7 6 -15 14 -18 8 -4 12 -11 8 -17 -3 -6 -1 -7 5 -3
6 4 9 13 6 21 -4 8 -10 13 -14 10 -5 -3 -11 1 -13 7 -4 10 -6 10 -6 0z"/>
<path d="M5220 5376 c0 -2 7 -7 16 -10 8 -3 12 -2 9 4 -6 10 -25 14 -25 6z"/>
<path d="M5717 5373 c-6 -10 -3 -60 4 -67 3 -3 5 13 4 34 0 42 -1 45 -8 33z"/>
<path d="M5814 5366 c1 -8 5 -18 8 -22 4 -3 5 1 4 10 -1 8 -5 18 -8 22 -4 3
-5 -1 -4 -10z"/>
<path d="M3457 5356 c4 -5 -1 -7 -12 -2 -15 5 -16 4 -5 -9 14 -17 1 -21 -18
-5 -7 5 -5 2 3 -7 13 -15 16 -15 39 9 21 23 21 26 6 25 -10 -1 -16 -5 -13 -11z"/>
<path d="M5915 5360 c3 -5 8 -10 11 -10 2 0 4 5 4 10 0 6 -5 10 -11 10 -5 0
-7 -4 -4 -10z"/>
<path d="M5950 5361 c0 -6 4 -13 10 -16 6 -3 7 1 4 9 -7 18 -14 21 -14 7z"/>
<path d="M6070 5360 c0 -5 5 -10 11 -10 5 0 7 5 4 10 -3 6 -8 10 -11 10 -2 0
-4 -4 -4 -10z"/>
<path d="M5036 5345 c-9 -26 -7 -32 5 -12 6 10 9 21 6 23 -2 3 -7 -2 -11 -11z"/>
<path d="M5397 5347 c-3 -8 1 -14 8 -14 7 0 11 6 8 14 -3 7 -6 13 -8 13 -2 0
-5 -6 -8 -13z"/>
<path d="M4915 5341 c3 -5 0 -11 -7 -13 -7 -3 -5 -7 6 -11 9 -4 15 -3 11 2 -3
5 0 11 7 13 7 3 5 7 -6 11 -9 4 -15 3 -11 -2z"/>
<path d="M5350 5343 c0 -5 5 -15 10 -23 7 -12 9 -10 7 8 -1 19 -17 33 -17 15z"/>
<path d="M5664 5342 c4 -3 14 -7 22 -8 9 -1 13 0 10 4 -4 3 -14 7 -22 8 -9 1
-13 0 -10 -4z"/>
<path d="M5609 5323 c-13 -16 -12 -17 4 -4 9 7 17 15 17 17 0 8 -8 3 -21 -13z"/>
<path d="M5995 5331 c-3 -5 -2 -12 3 -15 5 -3 9 1 9 9 0 17 -3 19 -12 6z"/>
<path d="M5070 5325 c0 -5 5 -17 10 -25 5 -8 10 -10 10 -5 0 6 -5 17 -10 25
-5 8 -10 11 -10 5z"/>
<path d="M5105 5319 c-4 -6 -4 -13 -1 -16 3 -4 6 -1 6 6 0 8 6 11 16 7 8 -3
12 -2 9 4 -8 13 -22 13 -30 -1z"/>
<path d="M5170 5320 c0 -5 5 -10 10 -10 6 0 10 5 10 10 0 6 -4 10 -10 10 -5 0
-10 -4 -10 -10z"/>
<path d="M5469 5317 c6 -8 9 -16 6 -19 -3 -2 2 -5 10 -5 13 0 13 3 -2 19 -19
21 -31 25 -14 5z"/>
<path d="M5640 5326 c0 -2 8 -10 18 -17 15 -13 16 -12 3 4 -13 16 -21 21 -21
13z"/>
<path d="M4944 5304 c-18 -14 -18 -14 6 -3 31 14 36 19 24 19 -6 0 -19 -7 -30
-16z"/>
<path d="M5389 5303 c-13 -16 -12 -17 4 -4 9 7 17 15 17 17 0 8 -8 3 -21 -13z"/>
<path d="M3376 5302 c-2 -4 -1 -14 3 -21 6 -9 11 -10 15 -2 4 6 2 11 -4 11 -6
0 -8 5 -5 10 3 6 4 10 1 10 -3 0 -7 -4 -10 -8z"/>
<path d="M4854 5302 c3 -5 0 -13 -6 -15 -9 -4 -10 -6 -1 -6 17 -1 25 16 12 25
-7 4 -9 3 -5 -4z"/>
<path d="M4894 5299 c-3 -6 -1 -16 5 -22 9 -9 10 -7 5 7 -6 15 -4 17 6 11 9
-5 11 -4 6 3 -9 15 -13 15 -22 1z"/>
<path d="M4993 5303 c4 -3 2 -12 -5 -20 -6 -7 -8 -16 -4 -20 3 -3 6 -1 6 6 0
7 4 10 8 7 4 -2 9 4 9 15 1 10 -3 19 -9 19 -6 0 -8 -3 -5 -7z"/>
<path d="M5308 5303 c7 -3 16 -2 19 1 4 3 -2 6 -13 5 -11 0 -14 -3 -6 -6z"/>
<path d="M5746 5302 c-3 -5 1 -9 9 -9 8 0 12 4 9 9 -3 4 -7 8 -9 8 -2 0 -6 -4
-9 -8z"/>
<path d="M5787 5299 c7 -7 15 -10 18 -7 3 3 -2 9 -12 12 -14 6 -15 5 -6 -5z"/>
<path d="M6035 5300 c3 -5 8 -10 11 -10 2 0 4 5 4 10 0 6 -5 10 -11 10 -5 0
-7 -4 -4 -10z"/>
<path d="M3331 5287 c-8 -10 -7 -14 2 -14 8 0 14 6 14 14 0 7 -1 13 -2 13 -2
0 -8 -6 -14 -13z"/>
<path d="M5040 5291 c0 -6 4 -13 10 -16 6 -3 7 1 4 9 -7 18 -14 21 -14 7z"/>
<path d="M5419 5298 c-5 -18 -6 -38 -1 -34 7 8 12 36 6 36 -2 0 -4 -1 -5 -2z"/>
<path d="M5510 5297 c0 -2 6 -10 14 -16 11 -9 16 -9 22 1 4 7 4 10 -1 6 -4 -4
-14 -3 -22 3 -7 6 -13 9 -13 6z"/>
<path d="M5080 5272 c-18 -14 -19 -19 -7 -19 9 0 13 5 10 10 -4 6 0 8 9 5 9
-4 15 0 15 8 0 18 0 18 -27 -4z"/>
<path d="M5191 5267 c-13 -21 -12 -21 5 -5 10 10 16 20 13 22 -3 3 -11 -5 -18
-17z"/>
<path d="M5221 5274 c0 -11 3 -14 6 -6 3 7 2 16 -1 19 -3 4 -6 -2 -5 -13z"/>
<path d="M5280 5286 c0 -2 8 -10 18 -17 15 -13 16 -12 3 4 -13 16 -21 21 -21
13z"/>
<path d="M4815 5271 c-3 -6 5 -15 17 -21 21 -10 21 -10 6 3 -10 8 -15 17 -11
20 3 4 4 7 0 7 -3 0 -8 -4 -12 -9z"/>
<path d="M4876 5267 c3 -10 9 -15 12 -12 3 3 0 11 -7 18 -10 9 -11 8 -5 -6z"/>
<path d="M4921 5273 c-1 -17 16 -25 25 -12 4 7 3 9 -4 5 -5 -3 -13 0 -15 6 -4
9 -6 10 -6 1z"/>
<path d="M5354 5266 c1 -8 5 -18 8 -22 4 -3 5 1 4 10 -1 8 -5 18 -8 22 -4 3
-5 -1 -4 -10z"/>
<path d="M5973 5265 c0 -8 4 -12 9 -9 5 3 6 10 3 15 -9 13 -12 11 -12 -6z"/>
<path d="M4860 5250 c6 -11 13 -20 16 -20 2 0 0 9 -6 20 -6 11 -13 20 -16 20
-2 0 0 -9 6 -20z"/>
<path d="M4956 5253 c-6 -14 -5 -15 5 -6 7 7 10 15 7 18 -3 3 -9 -2 -12 -12z"/>
<path d="M5119 5263 c-5 -36 -5 -62 -1 -58 7 7 12 65 6 65 -2 0 -4 -3 -5 -7z"/>
<path d="M5013 5246 c0 -6 10 -11 23 -11 25 0 23 10 -4 17 -10 3 -19 0 -19 -6z"/>
<path d="M5455 5249 c-4 -6 -5 -12 -2 -15 2 -3 7 2 10 11 7 17 1 20 -8 4z"/>
<path d="M4770 5239 c0 -5 5 -7 10 -4 6 3 10 8 10 11 0 2 -4 4 -10 4 -5 0 -10
-5 -10 -11z"/>
<path d="M4796 5235 c-9 -26 -7 -32 5 -12 6 10 9 21 6 23 -2 3 -7 -2 -11 -11z"/>
<path d="M4897 5236 c-4 -10 1 -12 14 -9 23 6 24 9 5 16 -8 3 -17 0 -19 -7z"/>
<path d="M5405 5239 c-3 -4 2 -6 10 -5 21 3 28 13 10 13 -9 0 -18 -4 -20 -8z"/>
<path d="M5839 5233 c-13 -16 -12 -17 4 -4 16 13 21 21 13 21 -2 0 -10 -8 -17
-17z"/>
<path d="M5149 5223 c-13 -16 -12 -17 4 -4 9 7 17 15 17 17 0 8 -8 3 -21 -13z"/>
<path d="M5229 5223 c-13 -16 -12 -17 4 -4 9 7 17 15 17 17 0 8 -8 3 -21 -13z"/>
<path d="M4815 5219 c-6 -8 -4 -10 5 -4 10 6 12 4 6 -11 -6 -15 -5 -17 5 -6 9
9 10 15 2 23 -8 8 -13 7 -18 -2z"/>
<path d="M5875 5220 c3 -5 8 -10 11 -10 2 0 4 5 4 10 0 6 -5 10 -11 10 -5 0
-7 -4 -4 -10z"/>
<path d="M4766 5203 c-8 -20 9 -40 19 -22 6 8 4 10 -5 4 -9 -5 -10 -2 -5 14 8
25 0 29 -9 4z"/>
<path d="M4876 5207 c3 -10 9 -15 12 -12 3 3 0 11 -7 18 -10 9 -11 8 -5 -6z"/>
<path d="M5171 5207 c-8 -10 -7 -14 2 -14 8 0 14 6 14 14 0 7 -1 13 -2 13 -2
0 -8 -6 -14 -13z"/>
<path d="M4716 5202 c-2 -4 0 -14 6 -22 8 -12 9 -11 4 4 -5 14 -2 17 9 12 9
-3 13 -2 10 4 -7 12 -22 13 -29 2z"/>
<path d="M4933 5193 c0 -8 7 -9 23 -3 12 5 25 6 28 3 3 -4 6 -2 6 4 0 6 -13
10 -28 9 -16 -1 -29 -6 -29 -13z"/>
<path d="M5235 5201 c-3 -5 -2 -12 3 -15 5 -3 9 1 9 9 0 17 -3 19 -12 6z"/>
<path d="M5619 5208 c-5 -18 -6 -38 -1 -34 7 8 12 36 6 36 -2 0 -4 -1 -5 -2z"/>
<path d="M5730 5200 c0 -5 5 -10 11 -10 5 0 7 5 4 10 -3 6 -8 10 -11 10 -2 0
-4 -4 -4 -10z"/>
<path d="M3235 5180 c-3 -5 -1 -10 4 -10 6 0 11 5 11 10 0 6 -2 10 -4 10 -3 0
-8 -4 -11 -10z"/>
<path d="M4541 5160 c-13 -38 -4 -40 10 -2 7 15 13 22 16 14 3 -7 19 -19 36
-28 29 -14 30 -13 13 1 -11 8 -24 15 -29 15 -4 0 -6 4 -3 9 3 5 -1 12 -10 15
-22 8 -21 9 -33 -24z"/>
<path d="M4694 5182 c3 -5 0 -13 -6 -15 -9 -4 -10 -6 -1 -6 17 -1 25 16 12 25
-7 4 -9 3 -5 -4z"/>
<path d="M5370 5179 c0 -5 5 -7 10 -4 6 3 10 8 10 11 0 2 -4 4 -10 4 -5 0 -10
-5 -10 -11z"/>
<path d="M5455 5180 c3 -5 8 -10 11 -10 2 0 4 5 4 10 0 6 -5 10 -11 10 -5 0
-7 -4 -4 -10z"/>
<path d="M5535 5180 c3 -5 8 -10 11 -10 2 0 4 5 4 10 0 6 -5 10 -11 10 -5 0
-7 -4 -4 -10z"/>
<path d="M5646 5182 c-3 -5 1 -9 9 -9 8 0 12 4 9 9 -3 4 -7 8 -9 8 -2 0 -6 -4
-9 -8z"/>
<path d="M4821 5164 c0 -11 3 -14 6 -6 3 7 2 16 -1 19 -3 4 -6 -2 -5 -13z"/>
<path d="M4611 5167 c2 -2 11 -8 20 -15 12 -9 16 -9 16 1 0 7 -9 14 -20 14
-11 1 -18 1 -16 0z"/>
<path d="M4790 5161 c0 -6 4 -12 8 -15 5 -3 9 1 9 9 0 8 -4 15 -9 15 -4 0 -8
-4 -8 -9z"/>
<path d="M4909 5157 c6 -8 7 -18 3 -22 -4 -5 -1 -5 6 -1 10 6 10 11 1 22 -6 8
-14 14 -16 14 -3 0 0 -6 6 -13z"/>
<path d="M5216 5158 c3 -5 10 -6 15 -3 13 9 11 12 -6 12 -8 0 -12 -4 -9 -9z"/>
<path d="M5337 5155 c-4 -8 -3 -16 1 -19 4 -3 9 4 9 15 2 23 -3 25 -10 4z"/>
<path d="M3150 5121 c0 -6 4 -12 8 -15 5 -3 9 1 9 9 0 8 -4 15 -9 15 -4 0 -8
-4 -8 -9z"/>
<path d="M4545 5120 c-3 -5 -2 -10 4 -10 5 0 13 5 16 10 3 6 2 10 -4 10 -5 0
-13 -4 -16 -10z"/>
<path d="M4653 5116 c0 -8 6 -12 15 -8 9 3 13 1 9 -5 -3 -5 0 -10 8 -10 13 0
12 4 -2 19 -19 22 -30 23 -30 4z"/>
<path d="M4755 5095 c0 -18 3 -36 6 -39 3 -3 5 10 4 29 0 18 -3 36 -6 39 -3 3
-5 -10 -4 -29z"/>
<path d="M5450 5126 c0 -2 7 -7 16 -10 8 -3 12 -2 9 4 -6 10 -25 14 -25 6z"/>
<path d="M5195 5100 c-3 -5 -1 -10 4 -10 6 0 11 5 11 10 0 6 -2 10 -4 10 -3 0
-8 -4 -11 -10z"/>
<path d="M4440 5096 c0 -2 7 -7 16 -10 8 -3 12 -2 9 4 -6 10 -25 14 -25 6z"/>
<path d="M5036 5087 c3 -10 9 -15 12 -12 3 3 0 11 -7 18 -10 9 -11 8 -5 -6z"/>
<path d="M4506 5082 c-2 -4 4 -8 14 -8 10 0 16 4 14 8 -3 4 -9 8 -14 8 -5 0
-11 -4 -14 -8z"/>
<path d="M4570 5086 c0 -2 7 -7 16 -10 8 -3 12 -2 9 4 -6 10 -25 14 -25 6z"/>
<path d="M4476 5071 c-3 -5 1 -11 9 -14 9 -4 12 -1 8 9 -6 16 -10 17 -17 5z"/>
<path d="M4710 5076 c0 -2 8 -10 18 -17 15 -13 16 -12 3 4 -13 16 -21 21 -21
13z"/>
<path d="M3107 5059 c7 -7 15 -10 18 -7 3 3 -2 9 -12 12 -14 6 -15 5 -6 -5z"/>
<path d="M4556 5061 c-17 -6 -17 -8 -4 -14 10 -3 19 0 22 9 3 8 4 14 3 13 -1
0 -11 -4 -21 -8z"/>
<path d="M5075 5060 c3 -5 8 -10 11 -10 2 0 4 5 4 10 0 6 -5 10 -11 10 -5 0
-7 -4 -4 -10z"/>
<path d="M4517 5053 c-10 -9 -9 -23 1 -23 5 0 9 7 9 15 0 17 -1 18 -10 8z"/>
<path d="M4333 5030 c-1 -11 2 -18 8 -15 11 7 12 35 1 35 -4 0 -8 -9 -9 -20z"/>
<path d="M4440 5035 c-19 -22 -8 -25 13 -3 9 10 13 18 8 18 -5 0 -14 -7 -21
-15z"/>
<path d="M4630 5046 c0 -2 7 -7 16 -10 8 -3 12 -2 9 4 -6 10 -25 14 -25 6z"/>
<path d="M4473 5015 c0 -7 8 -17 17 -23 12 -7 17 -7 17 4 0 7 -5 10 -10 7 -6
-4 -8 0 -5 9 4 8 1 15 -6 15 -7 0 -13 -6 -13 -12z"/>
<path d="M4370 5009 c0 -5 -5 -7 -11 -3 -8 4 -8 0 0 -15 14 -25 23 -28 14 -4
-4 11 -3 14 5 9 8 -5 10 -2 6 8 -7 18 -14 21 -14 5z"/>
<path d="M4390 5016 c0 -3 9 -10 20 -16 11 -6 20 -8 20 -6 0 3 -9 10 -20 16
-11 6 -20 8 -20 6z"/>
<path d="M4451 5004 c0 -11 3 -14 6 -6 3 7 2 16 -1 19 -3 4 -6 -2 -5 -13z"/>
<path d="M4549 4983 c-13 -16 -12 -17 4 -4 16 13 21 21 13 21 -2 0 -10 -8 -17
-17z"/>
<path d="M3030 4979 c0 -4 6 -9 13 -12 8 -3 14 0 14 7 0 7 -6 13 -14 13 -7 0
-13 -4 -13 -8z"/>
<path d="M4775 4980 c-3 -5 -1 -10 4 -10 6 0 11 5 11 10 0 6 -2 10 -4 10 -3 0
-8 -4 -11 -10z"/>
<path d="M4330 4958 c0 -6 3 -8 7 -5 3 4 13 1 22 -6 14 -11 14 -10 2 6 -15 20
-31 22 -31 5z"/>
<path d="M4467 4957 c3 -4 8 -6 11 -3 3 3 10 1 17 -4 8 -7 12 -6 12 3 0 7 -11
13 -23 13 -12 0 -20 -4 -17 -9z"/>
<path d="M4875 4960 c-3 -5 -1 -10 4 -10 6 0 11 5 11 10 0 6 -2 10 -4 10 -3 0
-8 -4 -11 -10z"/>
<path d="M4553 4945 c0 -8 4 -12 9 -9 5 3 6 10 3 15 -9 13 -12 11 -12 -6z"/>
<path d="M4255 4940 c-3 -5 -3 -10 2 -10 4 0 0 -5 -9 -11 -20 -11 -24 -29 -7
-29 5 0 7 5 3 12 -5 7 -2 9 8 5 11 -4 15 0 13 11 -1 9 5 20 14 24 14 6 14 7
-1 7 -9 1 -20 -3 -23 -9z"/>
<path d="M4300 4946 c0 -2 7 -7 16 -10 8 -3 12 -2 9 4 -6 10 -25 14 -25 6z"/>
<path d="M4390 4940 c13 -8 8 -14 -11 -12 -3 1 -6 -6 -6 -13 0 -10 4 -12 12
-5 7 5 15 8 18 5 4 -3 5 -2 2 2 -3 3 -1 11 5 17 6 8 2 12 -13 13 -17 2 -19 0
-7 -7z"/>
<path d="M4435 4942 c3 -3 -1 -12 -7 -21 -8 -10 -4 -9 10 3 26 23 26 23 7 23
-8 0 -13 -3 -10 -5z"/>
<path d="M4285 4920 c-3 -6 1 -7 9 -4 18 7 21 14 7 14 -6 0 -13 -4 -16 -10z"/>
<path d="M4459 4913 c-12 -16 -12 -17 2 -6 9 7 20 9 24 5 5 -4 5 -1 1 6 -9 16
-11 15 -27 -5z"/>
<path d="M4320 4916 c0 -2 7 -7 16 -10 8 -3 12 -2 9 4 -6 10 -25 14 -25 6z"/>
<path d="M4193 4885 c0 -14 3 -28 8 -31 5 -3 6 3 2 12 -5 13 -3 15 8 9 12 -7
12 -6 -1 11 -8 10 -15 20 -16 22 -1 2 -1 -9 -1 -23z"/>
<path d="M4530 4899 c0 -5 5 -7 10 -4 6 3 10 8 10 11 0 2 -4 4 -10 4 -5 0 -10
-5 -10 -11z"/>
<path d="M4606 4898 c3 -5 10 -6 15 -3 13 9 11 12 -6 12 -8 0 -12 -4 -9 -9z"/>
<path d="M4670 4899 c0 -5 5 -7 10 -4 6 3 10 8 10 11 0 2 -4 4 -10 4 -5 0 -10
-5 -10 -11z"/>
<path d="M4265 4880 c-18 -20 -18 -21 0 -14 11 5 16 4 12 -3 -3 -5 0 -10 8
-10 11 0 12 4 4 13 -6 7 -8 18 -4 24 10 17 -1 11 -20 -10z"/>
<path d="M4419 4898 c-5 -18 -6 -38 -1 -34 7 8 12 36 6 36 -2 0 -4 -1 -5 -2z"/>
<path d="M4310 4875 c5 -7 8 -14 5 -17 -3 -2 2 -5 10 -5 10 0 12 4 5 12 -5 7
-8 14 -5 17 3 2 -2 5 -10 5 -10 0 -12 -4 -5 -12z"/>
<path d="M4575 4871 c-3 -5 -2 -12 3 -15 5 -3 9 1 9 9 0 17 -3 19 -12 6z"/>
<path d="M4369 4843 c-13 -16 -12 -17 4 -4 9 7 17 15 17 17 0 8 -8 3 -21 -13z"/>
<path d="M4233 4830 c5 -29 13 -33 13 -5 0 14 -4 25 -8 25 -4 0 -7 -9 -5 -20z"/>
<path d="M4436 4833 c-6 -14 -5 -15 5 -6 7 7 10 15 7 18 -3 3 -9 -2 -12 -12z"/>
<path d="M2902 4815 c6 -13 15 -22 19 -19 5 2 1 14 -9 24 -22 26 -24 25 -10
-5z"/>
<path d="M4117 4829 c7 -7 15 -10 18 -7 3 3 -2 9 -12 12 -14 6 -15 5 -6 -5z"/>
<path d="M4073 4803 c0 -15 2 -22 4 -15 3 6 10 9 16 5 7 -4 5 2 -3 13 -8 10
-15 20 -16 22 -1 2 -1 -10 -1 -25z"/>
<path d="M4188 4823 c7 -3 16 -2 19 1 4 3 -2 6 -13 5 -11 0 -14 -3 -6 -6z"/>
<path d="M4296 4807 c3 -10 9 -15 12 -12 3 3 0 11 -7 18 -10 9 -11 8 -5 -6z"/>
<path d="M4356 4807 c3 -10 9 -15 12 -12 3 3 0 11 -7 18 -10 9 -11 8 -5 -6z"/>
<path d="M4120 4795 c-7 -8 -10 -15 -6 -15 3 0 2 -10 -3 -23 -7 -19 -6 -23 10
-23 11 0 15 4 9 11 -12 15 -7 45 11 56 8 5 9 9 3 9 -6 0 -17 -7 -24 -15z"/>
<path d="M4193 4787 c-1 -11 -1 -18 0 -16 2 2 8 11 15 20 9 12 9 16 -1 16 -7
0 -14 -9 -14 -20z"/>
<path d="M4396 4798 c3 -5 10 -6 15 -3 13 9 11 12 -6 12 -8 0 -12 -4 -9 -9z"/>
<path d="M4435 4801 c-3 -5 -2 -12 3 -15 5 -3 9 1 9 9 0 17 -3 19 -12 6z"/>
<path d="M4230 4786 c0 -2 7 -7 16 -10 8 -3 12 -2 9 4 -6 10 -25 14 -25 6z"/>
<path d="M4033 4752 c-1 -22 0 -24 9 -8 6 10 6 22 2 26 -5 5 -10 -3 -11 -18z"/>
<path d="M4213 4767 c0 -7 9 -14 20 -14 11 -1 18 -1 16 0 -2 2 -11 8 -20 15
-12 9 -16 9 -16 -1z"/>
<path d="M4415 4760 c-3 -5 -1 -10 4 -10 6 0 11 5 11 10 0 6 -2 10 -4 10 -3 0
-8 -4 -11 -10z"/>
<path d="M3976 4736 c5 -13 4 -17 -4 -12 -7 4 -12 2 -12 -3 0 -14 17 -14 26 0
3 6 1 16 -5 22 -9 9 -10 7 -5 -7z"/>
<path d="M4153 4725 c0 -8 4 -12 9 -9 5 3 6 10 3 15 -9 13 -12 11 -12 -6z"/>
<path d="M4230 4721 c0 -6 4 -13 10 -16 6 -3 7 1 4 9 -7 18 -14 21 -14 7z"/>
<path d="M4255 4720 c3 -5 8 -10 11 -10 2 0 4 5 4 10 0 6 -5 10 -11 10 -5 0
-7 -4 -4 -10z"/>
<path d="M3995 4701 c3 -5 1 -12 -5 -16 -5 -3 -10 -11 -10 -18 0 -6 7 -2 15 9
17 23 19 34 4 34 -5 0 -8 -4 -4 -9z"/>
<path d="M4068 4693 c7 -3 16 -2 19 1 4 3 -2 6 -13 5 -11 0 -14 -3 -6 -6z"/>
<path d="M4134 4680 c0 -13 4 -16 10 -10 7 7 7 13 0 20 -6 6 -10 3 -10 -10z"/>
<path d="M4193 4687 c0 -8 6 -14 14 -14 9 0 10 4 2 14 -6 7 -12 13 -14 13 -1
0 -2 -6 -2 -13z"/>
<path d="M3950 4680 c0 -5 5 -10 11 -10 5 0 7 5 4 10 -3 6 -8 10 -11 10 -2 0
-4 -4 -4 -10z"/>
<path d="M4015 4679 c-4 -6 -4 -13 -1 -16 3 -4 6 -1 6 6 0 7 5 9 12 5 7 -4 8
-3 4 4 -9 15 -13 15 -21 1z"/>
<path d="M3925 4659 c-4 -6 -4 -13 -1 -16 3 -4 6 -1 6 6 0 7 5 9 12 5 7 -4 8
-3 4 4 -9 15 -13 15 -21 1z"/>
<path d="M4189 4643 c-13 -16 -12 -17 4 -4 9 7 17 15 17 17 0 8 -8 3 -21 -13z"/>
<path d="M3935 4630 c-4 -6 1 -7 11 -3 10 4 15 2 11 -4 -3 -5 0 -10 8 -10 11
0 12 4 4 14 -14 15 -26 17 -34 3z"/>
<path d="M4213 4625 c0 -8 4 -12 9 -9 5 3 6 10 3 15 -9 13 -12 11 -12 -6z"/>
<path d="M3832 4617 c-24 -11 -26 -44 -3 -39 8 2 11 -3 8 -11 -3 -7 1 -14 8
-14 10 0 11 5 4 19 -6 10 -14 16 -20 13 -5 -4 -9 -1 -9 5 0 13 40 29 58 23 6
-3 12 -1 12 4 0 12 -31 13 -58 0z"/>
<path d="M3999 4613 c-13 -16 -12 -17 4 -4 16 13 21 21 13 21 -2 0 -10 -8 -17
-17z"/>
<path d="M3906 4598 c3 -4 9 -8 15 -8 5 0 9 4 9 8 0 5 -7 9 -15 9 -8 0 -12 -4
-9 -9z"/>
<path d="M4019 4593 c-13 -17 -13 -17 6 -3 11 8 22 16 24 17 2 2 0 3 -6 3 -6
0 -17 -8 -24 -17z"/>
<path d="M4130 4579 c0 -5 5 -7 10 -4 6 3 10 8 10 11 0 2 -4 4 -10 4 -5 0 -10
-5 -10 -11z"/>
<path d="M3775 4563 c12 -14 17 -15 27 -4 11 11 10 13 -3 8 -9 -3 -22 -1 -28
4 -6 5 -4 1 4 -8z"/>
<path d="M3890 4570 c-9 -6 -10 -10 -3 -10 6 0 15 5 18 10 8 12 4 12 -15 0z"/>
<path d="M3936 4567 c3 -10 9 -15 12 -12 3 3 0 11 -7 18 -10 9 -11 8 -5 -6z"/>
<path d="M3817 4539 c7 -7 15 -10 18 -7 3 3 -2 9 -12 12 -14 6 -15 5 -6 -5z"/>
<path d="M3870 4540 c0 -5 5 -10 10 -10 6 0 10 5 10 10 0 6 -4 10 -10 10 -5 0
-10 -4 -10 -10z"/>
<path d="M4115 4539 c-3 -4 2 -6 10 -5 21 3 28 13 10 13 -9 0 -18 -4 -20 -8z"/>
<path d="M4190 4545 c0 -5 5 -17 10 -25 5 -8 10 -10 10 -5 0 6 -5 17 -10 25
-5 8 -10 11 -10 5z"/>
<path d="M2633 4525 c0 -8 4 -15 9 -15 5 0 6 -5 2 -12 -4 -7 -3 -8 4 -4 9 5 9
13 2 27 -13 23 -17 24 -17 4z"/>
<path d="M3929 4523 c-13 -16 -12 -17 4 -4 9 7 17 15 17 17 0 8 -8 3 -21 -13z"/>
<path d="M3973 4527 c0 -8 6 -14 14 -14 9 0 10 4 2 14 -6 7 -12 13 -14 13 -1
0 -2 -6 -2 -13z"/>
<path d="M3753 4491 c0 -11 5 -18 9 -15 4 3 5 11 1 19 -7 21 -12 19 -10 -4z"/>
<path d="M3795 4480 c-3 -5 -1 -10 4 -10 6 0 11 5 11 10 0 6 -2 10 -4 10 -3 0
-8 -4 -11 -10z"/>
<path d="M3990 4478 c0 -4 4 -8 9 -8 6 0 12 4 15 8 3 5 -1 9 -9 9 -8 0 -15 -4
-15 -9z"/>
<path d="M4100 4480 c-9 -6 -10 -10 -3 -10 6 0 15 5 18 10 8 12 4 12 -15 0z"/>
<path d="M2570 4458 c0 -11 12 -10 30 2 12 7 10 9 -8 7 -12 0 -22 -5 -22 -9z"/>
<path d="M3744 4456 c11 -9 23 -16 27 -16 14 0 19 19 8 26 -8 4 -9 3 -5 -4 9
-15 1 -15 -27 -1 -21 10 -21 10 -3 -5z"/>
<path d="M3837 4457 c4 -6 0 -8 -9 -5 -8 4 -15 1 -15 -7 0 -7 6 -11 14 -8 7 3
21 -1 31 -8 15 -13 16 -12 4 3 -8 9 -11 21 -8 26 3 5 -1 9 -9 9 -8 0 -11 -5
-8 -10z"/>
<path d="M3873 4453 c0 -9 4 -10 14 -2 7 6 13 12 13 14 0 1 -6 2 -13 2 -8 0
-14 -6 -14 -14z"/>
<path d="M3915 4463 c3 -3 0 -11 -5 -18 -7 -8 -5 -12 4 -12 14 0 16 22 3 32
-4 3 -5 2 -2 -2z"/>
<path d="M3711 4440 c-9 -5 -4 -7 13 -7 29 0 32 2 13 10 -8 3 -20 2 -26 -3z"/>
<path d="M3652 4404 c-7 -8 -8 -14 -3 -14 10 0 25 19 20 25 -2 1 -10 -3 -17
-11z"/>
<path d="M3704 4404 c-18 -14 -18 -15 4 -4 12 6 22 13 22 15 0 8 -5 6 -26 -11z"/>
<path d="M3796 4413 c-4 -5 -12 -9 -17 -9 -5 -1 -13 -2 -18 -3 -5 0 -12 -9
-15 -18 -6 -15 -5 -16 11 -1 10 8 25 14 34 13 9 -2 16 4 16 11 0 16 -1 17 -11
7z"/>
<path d="M3955 4409 c-4 -6 -5 -12 -2 -15 2 -3 7 2 10 11 7 17 1 20 -8 4z"/>
<path d="M3916 4393 c-6 -14 -5 -15 5 -6 7 7 10 15 7 18 -3 3 -9 -2 -12 -12z"/>
<path d="M3710 4381 c0 -6 4 -13 10 -16 6 -3 7 1 4 9 -7 18 -14 21 -14 7z"/>
<path d="M3827 4379 c7 -7 15 -10 18 -7 3 3 -2 9 -12 12 -14 6 -15 5 -6 -5z"/>
<path d="M3681 4357 c-13 -21 -12 -21 5 -5 10 10 16 20 13 22 -3 3 -11 -5 -18
-17z"/>
<path d="M2516 4362 c-3 -4 4 -9 15 -9 23 -2 25 3 4 10 -8 4 -16 3 -19 -1z"/>
<path d="M3800 4360 c-9 -6 -10 -10 -3 -10 6 0 15 5 18 10 8 12 4 12 -15 0z"/>
<path d="M3906 4358 c3 -4 9 -8 15 -8 5 0 9 4 9 8 0 5 -7 9 -15 9 -8 0 -12 -4
-9 -9z"/>
<path d="M3750 4356 c0 -2 8 -10 18 -17 15 -13 16 -12 3 4 -13 16 -21 21 -21
13z"/>
<path d="M3699 4348 c-4 -15 -6 -50 -2 -40 4 10 10 9 26 -5 19 -16 20 -16 8 0
-11 14 -11 20 0 35 11 14 11 15 -1 5 -17 -15 -34 -17 -25 -3 3 6 4 10 1 10 -3
0 -6 -1 -7 -2z"/>
<path d="M3622 4324 c-7 -8 -8 -14 -3 -14 10 0 25 19 20 25 -2 1 -10 -3 -17
-11z"/>
<path d="M2470 4322 c0 -4 6 -16 13 -26 10 -14 14 -15 14 -4 0 7 -6 19 -14 26
-7 7 -13 9 -13 4z"/>
<path d="M3910 4319 c0 -5 5 -7 10 -4 6 3 10 8 10 11 0 2 -4 4 -10 4 -5 0 -10
-5 -10 -11z"/>
<path d="M3630 4300 c-9 -6 -10 -10 -3 -10 6 0 15 5 18 10 8 12 4 12 -15 0z"/>
<path d="M3936 4298 c3 -5 10 -6 15 -3 13 9 11 12 -6 12 -8 0 -12 -4 -9 -9z"/>
<path d="M3651 4286 c-9 -10 -8 -15 2 -19 8 -3 13 3 13 14 0 23 0 23 -15 5z"/>
<path d="M3696 4278 c3 -5 10 -6 15 -3 13 9 11 12 -6 12 -8 0 -12 -4 -9 -9z"/>
<path d="M3759 4273 c-12 -16 -12 -17 2 -6 9 7 20 9 24 5 5 -4 5 -1 1 6 -9 16
-11 15 -27 -5z"/>
<path d="M3720 4260 c-9 -6 -10 -10 -3 -10 6 0 15 5 18 10 8 12 4 12 -15 0z"/>
<path d="M3655 4241 c-3 -5 -2 -12 3 -15 5 -3 9 1 9 9 0 17 -3 19 -12 6z"/>
<path d="M3750 4245 c0 -7 30 -13 34 -7 3 4 -4 9 -15 9 -10 1 -19 0 -19 -2z"/>
<path d="M3550 4230 c-9 -6 -10 -10 -3 -10 6 0 15 5 18 10 8 12 4 12 -15 0z"/>
<path d="M3626 4223 c-6 -14 -5 -15 5 -6 7 7 10 15 7 18 -3 3 -9 -2 -12 -12z"/>
<path d="M3587 4213 c4 -10 2 -14 -4 -10 -5 3 -10 0 -10 -8 0 -13 4 -12 19 2
22 19 22 19 4 26 -11 4 -13 1 -9 -10z"/>
<path d="M3471 4198 c-19 -22 -22 -56 -5 -54 22 3 28 15 15 29 -9 11 -8 17 5
28 14 11 15 10 12 -6 -1 -10 3 -19 10 -21 7 -1 8 0 3 2 -6 3 -7 12 -4 20 3 7
9 11 14 8 5 -3 9 -1 9 5 0 16 -43 8 -59 -11z m7 -43 c-3 -3 -9 2 -12 12 -6 14
-5 15 5 6 7 -7 10 -15 7 -18z"/>
<path d="M3635 4199 c-3 -4 2 -6 10 -5 21 3 28 13 10 13 -9 0 -18 -4 -20 -8z"/>
<path d="M3870 4199 c0 -5 5 -7 10 -4 6 3 10 8 10 11 0 2 -4 4 -10 4 -5 0 -10
-5 -10 -11z"/>
<path d="M3614 4160 c0 -13 4 -16 10 -10 7 7 7 13 0 20 -6 6 -10 3 -10 -10z"/>
<path d="M3649 4163 c-13 -16 -12 -17 4 -4 16 13 21 21 13 21 -2 0 -10 -8 -17
-17z"/>
<path d="M3570 4161 c0 -6 4 -13 10 -16 6 -3 7 1 4 9 -7 18 -14 21 -14 7z"/>
<path d="M3512 4151 c-11 -6 -9 -9 6 -13 15 -4 19 -2 15 8 -6 16 -4 16 -21 5z"/>
<path d="M3776 4138 c3 -5 10 -6 15 -3 13 9 11 12 -6 12 -8 0 -12 -4 -9 -9z"/>
<path d="M3553 4126 c0 -15 22 -15 34 0 4 5 4 6 -1 2 -5 -4 -14 -3 -21 2 -8 7
-12 5 -12 -4z"/>
<path d="M3496 4118 c3 -5 10 -6 15 -3 13 9 11 12 -6 12 -8 0 -12 -4 -9 -9z"/>
<path d="M3470 4102 c0 -5 10 -17 23 -28 22 -19 22 -19 4 2 -9 11 -14 24 -10
27 3 4 1 7 -5 7 -7 0 -12 -4 -12 -8z"/>
<path d="M3543 4085 c17 -19 17 -19 35 0 16 18 16 18 0 6 -15 -11 -21 -11 -35
0 -17 12 -17 12 0 -6z"/>
<path d="M3680 4060 c-12 -7 -10 -9 7 -7 12 0 19 5 17 9 -6 10 -6 10 -24 -2z"/>
<path d="M3455 4040 c-2 -3 5 -7 16 -7 10 -1 19 2 19 6 0 9 -29 10 -35 1z"/>
<path d="M3550 4046 c0 -2 7 -7 16 -10 8 -3 12 -2 9 4 -6 10 -25 14 -25 6z"/>
<path d="M3463 4002 c10 -10 14 -22 10 -27 -5 -4 -2 -5 5 -1 11 6 10 12 -4 27
-9 10 -19 19 -22 19 -3 0 2 -8 11 -18z"/>
<path d="M3676 4007 c3 -10 9 -15 12 -12 3 3 0 11 -7 18 -10 9 -11 8 -5 -6z"/>
<path d="M3335 3971 c-3 -6 -12 -8 -18 -5 -8 5 -8 3 1 -7 16 -18 15 -32 -3
-26 -21 9 -28 -9 -13 -35 7 -13 11 -27 9 -33 -1 -5 1 -6 5 -2 12 12 14 38 2
31 -6 -4 -9 -1 -6 7 3 8 14 13 24 11 16 -2 17 -1 4 7 -14 10 -8 15 15 12 6 -1
2 5 -8 13 -10 8 -14 17 -9 20 5 3 12 2 16 -1 11 -11 36 -12 36 -1 0 6 -6 8
-14 5 -7 -3 -18 -1 -24 5 -6 6 -12 6 -17 -1z"/>
<path d="M3595 3920 c-3 -5 -1 -10 4 -10 6 0 11 5 11 10 0 6 -2 10 -4 10 -3 0
-8 -4 -11 -10z"/>
<path d="M3450 3859 c0 -5 5 -7 10 -4 6 3 10 8 10 11 0 2 -4 4 -10 4 -5 0 -10
-5 -10 -11z"/>
<path d="M3265 3852 c-10 -11 -4 -22 18 -32 20 -10 20 -10 5 3 -19 15 -25 33
-9 22 5 -3 12 -2 15 3 5 9 -20 12 -29 4z"/>
<path d="M3310 3839 c0 -5 5 -7 10 -4 6 3 10 8 10 11 0 2 -4 4 -10 4 -5 0 -10
-5 -10 -11z"/>
<path d="M3366 3822 c-3 -5 1 -9 9 -9 8 0 12 4 9 9 -3 4 -7 8 -9 8 -2 0 -6 -4
-9 -8z"/>
<path d="M3410 3820 c0 -5 5 -10 11 -10 5 0 7 5 4 10 -3 6 -8 10 -11 10 -2 0
-4 -4 -4 -10z"/>
<path d="M3459 3828 c-5 -18 -6 -38 -1 -34 7 8 12 36 6 36 -2 0 -4 -1 -5 -2z"/>
<path d="M3336 3807 c3 -10 9 -15 12 -12 3 3 0 11 -7 18 -10 9 -11 8 -5 -6z"/>
<path d="M2190 3799 c0 -5 5 -7 10 -4 6 3 10 8 10 11 0 2 -4 4 -10 4 -5 0 -10
-5 -10 -11z"/>
<path d="M3250 3802 c0 -5 7 -9 15 -9 8 0 12 4 9 9 -3 4 -9 8 -15 8 -5 0 -9
-4 -9 -8z"/>
<path d="M3370 3779 c0 -5 5 -7 10 -4 6 3 10 8 10 11 0 2 -4 4 -10 4 -5 0 -10
-5 -10 -11z"/>
<path d="M3375 3751 c-3 -5 -2 -12 3 -15 5 -3 9 1 9 9 0 17 -3 19 -12 6z"/>
<path d="M2115 3729 c-4 -6 -5 -12 -2 -15 2 -3 7 2 10 11 7 17 1 20 -8 4z"/>
<path d="M3160 3720 c-13 -8 -12 -10 3 -10 11 0 15 -4 11 -12 -4 -7 -3 -8 4
-4 6 4 9 13 5 21 -6 18 -4 17 -23 5z"/>
<path d="M3195 3689 c-4 -6 -5 -12 -2 -15 2 -3 7 2 10 11 7 17 1 20 -8 4z"/>
<path d="M3116 3668 c3 -4 9 -8 15 -8 5 0 9 4 9 8 0 5 -7 9 -15 9 -8 0 -12 -4
-9 -9z"/>
<path d="M3295 3659 c-3 -4 2 -6 10 -5 21 3 28 13 10 13 -9 0 -18 -4 -20 -8z"/>
<path d="M3107 3596 c-6 -14 4 -26 33 -40 8 -4 5 1 -8 11 -25 21 -18 40 7 20
14 -11 14 -10 2 6 -16 21 -27 22 -34 3z"/>
<path d="M3256 3578 c3 -5 10 -6 15 -3 13 9 11 12 -6 12 -8 0 -12 -4 -9 -9z"/>
<path d="M3210 3560 c0 -5 5 -10 11 -10 5 0 7 5 4 10 -3 6 -8 10 -11 10 -2 0
-4 -4 -4 -10z"/>
<path d="M3450 3519 c0 -5 5 -7 10 -4 6 3 10 8 10 11 0 2 -4 4 -10 4 -5 0 -10
-5 -10 -11z"/>
<path d="M1975 3460 c-3 -5 -2 -10 4 -10 5 0 13 5 16 10 3 6 2 10 -4 10 -5 0
-13 -4 -16 -10z"/>
<path d="M3126 3462 c-3 -5 1 -9 9 -9 8 0 12 4 9 9 -3 4 -7 8 -9 8 -2 0 -6 -4
-9 -8z"/>
<path d="M3150 3420 c0 -5 5 -10 11 -10 5 0 7 5 4 10 -3 6 -8 10 -11 10 -2 0
-4 -4 -4 -10z"/>
<path d="M1977 3413 c-10 -9 -9 -23 1 -23 5 0 9 7 9 15 0 17 -1 18 -10 8z"/>
<path d="M3055 3380 c-3 -5 -1 -10 4 -10 6 0 11 5 11 10 0 6 -2 10 -4 10 -3 0
-8 -4 -11 -10z"/>
<path d="M1923 3363 c18 -20 18 -22 0 -31 -13 -8 -15 -14 -7 -22 8 -8 14 -7
24 5 7 8 9 15 5 15 -4 0 -1 8 6 18 7 9 9 14 4 9 -4 -4 -18 1 -29 10 -21 18
-21 18 -3 -4z"/>
<path d="M3090 3360 c0 -5 5 -10 11 -10 5 0 7 5 4 10 -3 6 -8 10 -11 10 -2 0
-4 -4 -4 -10z"/>
<path d="M2903 3307 l-20 -33 24 -11 c16 -8 25 -8 30 -1 3 6 1 8 -4 5 -6 -4
-17 1 -24 10 -12 15 -12 16 5 10 15 -6 17 -5 8 6 -9 10 -8 17 0 25 6 6 9 14 6
17 -3 3 -14 -9 -25 -28z"/>
<path d="M3033 3325 c0 -8 4 -12 9 -9 5 3 6 10 3 15 -9 13 -12 11 -12 -6z"/>
<path d="M2970 3286 c0 -2 7 -7 16 -10 8 -3 12 -2 9 4 -6 10 -25 14 -25 6z"/>
<path d="M3226 3282 c-2 -4 4 -8 14 -8 10 0 16 4 14 8 -3 4 -9 8 -14 8 -5 0
-11 -4 -14 -8z"/>
<path d="M3070 3246 c0 -2 7 -7 16 -10 8 -3 12 -2 9 4 -6 10 -25 14 -25 6z"/>
<path d="M2926 3182 c-3 -5 1 -9 9 -9 8 0 12 4 9 9 -3 4 -7 8 -9 8 -2 0 -6 -4
-9 -8z"/>
<path d="M2995 3160 c3 -5 8 -10 11 -10 2 0 4 5 4 10 0 6 -5 10 -11 10 -5 0
-7 -4 -4 -10z"/>
<path d="M2874 3142 c4 -3 14 -7 22 -8 9 -1 13 0 10 4 -4 3 -14 7 -22 8 -9 1
-13 0 -10 -4z"/>
<path d="M1773 3098 c3 -9 1 -19 -6 -21 -7 -2 1 -4 17 -4 17 0 23 3 16 7 -7 4
-17 14 -22 21 -8 11 -9 10 -5 -3z"/>
<path d="M2746 3033 c-6 -14 -5 -15 5 -6 7 7 10 15 7 18 -3 3 -9 -2 -12 -12z"/>
<path d="M1755 3020 c3 -5 8 -10 11 -10 2 0 4 5 4 10 0 6 -5 10 -11 10 -5 0
-7 -4 -4 -10z"/>
<path d="M2662 2975 c-16 -13 -32 -22 -36 -20 -3 3 -4 2 -1 -2 3 -3 -1 -13 -8
-21 -9 -13 -9 -14 1 -8 6 4 12 2 12 -3 0 -6 5 -11 10 -11 6 0 9 6 8 13 -2 6 3
11 10 9 8 -1 11 2 6 9 -5 9 -2 10 9 6 12 -4 14 -2 10 11 -6 15 -5 16 13 2 15
-11 16 -11 7 0 -19 21 -16 34 5 19 15 -13 16 -12 3 4 -17 21 -14 22 -49 -8z
m18 2 c0 -2 -12 -14 -27 -28 l-28 -24 24 28 c23 25 31 32 31 24z"/>
<path d="M1773 2933 c4 -6 0 -19 -9 -27 -18 -19 -14 -20 21 -4 14 6 25 16 25
21 0 6 -3 7 -7 4 -3 -4 -13 -1 -21 6 -11 8 -14 8 -9 0z"/>
<path d="M1710 2780 c0 -5 5 -10 10 -10 6 0 10 5 10 10 0 6 -4 10 -10 10 -5 0
-10 -4 -10 -10z"/>
<path d="M2506 2778 c3 -5 10 -6 15 -3 13 9 11 12 -6 12 -8 0 -12 -4 -9 -9z"/>
<path d="M1650 2698 c0 -4 5 -8 11 -8 5 0 7 -5 3 -12 -4 -7 -3 -8 5 -4 6 4 9
11 6 16 -3 4 1 10 7 13 7 3 3 4 -9 4 -13 -1 -23 -5 -23 -9z"/>
<path d="M2077 2634 c-11 -11 -8 -26 3 -19 6 3 10 1 10 -6 0 -7 3 -10 6 -6 3
3 2 13 -3 22 -5 8 -12 12 -16 9z"/>
<path d="M2110 2620 c0 -6 7 -10 15 -10 8 0 15 2 15 4 0 2 -7 6 -15 10 -8 3
-15 1 -15 -4z"/>
<path d="M1894 2606 c-4 -11 -13 -15 -22 -11 -9 3 -13 3 -9 -1 4 -4 1 -14 -6
-22 -9 -13 -9 -14 1 -8 6 4 13 2 13 -3 3 -26 4 -30 11 -37 8 -8 2 31 -7 46 -9
14 8 12 25 -2 11 -10 11 -9 0 6 -14 18 -13 19 2 13 23 -8 32 7 13 23 -12 10
-16 9 -21 -4z"/>
<path d="M1955 2600 c-3 -5 -1 -10 4 -10 6 0 11 5 11 10 0 6 -2 10 -4 10 -3 0
-8 -4 -11 -10z"/>
<path d="M2145 2600 c-3 -6 1 -7 9 -4 18 7 21 14 7 14 -6 0 -13 -4 -16 -10z"/>
<path d="M2015 2581 c-3 -5 -2 -12 3 -15 5 -3 9 1 9 9 0 17 -3 19 -12 6z"/>
<path d="M1476 2562 c-3 -5 1 -9 9 -9 8 0 12 4 9 9 -3 4 -7 8 -9 8 -2 0 -6 -4
-9 -8z"/>
<path d="M2090 2560 c0 -5 5 -10 11 -10 5 0 7 5 4 10 -3 6 -8 10 -11 10 -2 0
-4 -4 -4 -10z"/>
<path d="M2386 2522 c-3 -5 1 -9 9 -9 8 0 12 4 9 9 -3 4 -7 8 -9 8 -2 0 -6 -4
-9 -8z"/>
<path d="M1689 2433 c-7 -10 -9 -15 -4 -10 4 4 20 -3 34 -15 l26 -23 -23 26
c-12 14 -19 29 -15 32 3 4 4 7 1 7 -3 0 -12 -8 -19 -17z"/>
<path d="M1651 2389 c-13 -10 -19 -19 -15 -19 13 1 48 29 43 34 -2 2 -15 -4
-28 -15z"/>
<path d="M1690 2379 c0 -5 5 -7 10 -4 6 3 10 8 10 11 0 2 -4 4 -10 4 -5 0 -10
-5 -10 -11z"/>
<path d="M1605 2340 c-3 -5 -2 -10 4 -10 5 0 13 5 16 10 3 6 2 10 -4 10 -5 0
-13 -4 -16 -10z"/>
<path d="M1620 2320 c-12 -7 -10 -9 8 -7 12 0 22 5 22 9 0 11 -12 10 -30 -2z"/>
<path d="M1379 2033 c-13 -16 -12 -17 4 -4 9 7 17 15 17 17 0 8 -8 3 -21 -13z"/>
<path d="M1125 1981 c-3 -5 -2 -12 3 -15 5 -3 9 1 9 9 0 17 -3 19 -12 6z"/>
<path d="M1020 1860 c-8 -5 -10 -10 -5 -10 6 0 17 5 25 10 8 5 11 10 5 10 -5
0 -17 -5 -25 -10z"/>
<path d="M1195 1801 c-3 -5 -2 -12 3 -15 5 -3 9 1 9 9 0 17 -3 19 -12 6z"/>
<path d="M917 1703 c7 -2 9 -12 6 -21 -6 -18 -5 -17 14 8 10 13 8 16 -10 17
-12 0 -17 -1 -10 -4z"/>
<path d="M896 1686 c5 -12 4 -17 -3 -13 -5 3 -10 -1 -10 -9 0 -13 2 -13 16 0
12 13 13 18 2 28 -10 11 -11 9 -5 -6z"/>
<path d="M786 1533 c2 -7 -5 -17 -14 -22 -9 -6 -13 -11 -8 -11 5 0 3 -6 -4
-14 -6 -8 -19 -12 -28 -9 -9 3 -14 3 -11 -1 10 -10 50 -16 44 -6 -3 5 3 13 12
19 10 6 14 11 9 11 -5 0 -1 10 10 22 10 12 14 18 7 15 -6 -4 -13 -4 -16 0 -2
5 -2 2 -1 -4z"/>
<path d="M885 1450 c-10 -11 -15 -20 -11 -20 11 0 39 30 34 36 -3 2 -13 -5
-23 -16z"/>
<path d="M560 1286 c0 -8 4 -17 9 -20 5 -4 7 3 4 14 -6 23 -13 26 -13 6z"/>
<path d="M389 1083 c-13 -16 -12 -17 4 -4 9 7 17 15 17 17 0 8 -8 3 -21 -13z"/>
<path d="M352 1065 c4 -4 3 -14 -3 -22 -7 -8 -8 -13 -1 -13 15 0 23 28 9 36
-7 4 -9 4 -5 -1z"/>
<path d="M546 1022 c-3 -5 1 -9 9 -9 8 0 12 4 9 9 -3 4 -7 8 -9 8 -2 0 -6 -4
-9 -8z"/>
<path d="M337 1005 c3 -8 9 -12 14 -9 12 7 11 11 -5 17 -10 4 -13 1 -9 -8z"/>
<path d="M306 1002 c-3 -5 1 -9 9 -9 8 0 12 4 9 9 -3 4 -7 8 -9 8 -2 0 -6 -4
-9 -8z"/>
<path d="M475 960 c-17 -8 -17 -9 7 -7 15 1 24 5 22 9 -3 4 -6 8 -7 7 -1 0
-11 -4 -22 -9z"/>
<path d="M256 938 c3 -4 12 -8 20 -8 8 0 14 4 14 8 0 4 -9 8 -19 8 -11 0 -17
-4 -15 -8z"/>
<path d="M270 911 c-8 -6 -18 -7 -24 -4 -5 3 -6 1 -2 -5 4 -7 1 -12 -6 -12
-11 0 -10 -2 0 -9 10 -6 8 -10 -9 -14 -13 -4 -20 -9 -17 -12 9 -10 49 15 43
26 -5 8 7 13 26 11 3 -1 6 6 6 14 0 8 -1 14 -1 14 -1 0 -8 -4 -16 -9z"/>
<path d="M415 861 c-3 -5 -2 -12 3 -15 5 -3 9 1 9 9 0 17 -3 19 -12 6z"/>
<path d="M355 800 c-3 -5 -1 -10 4 -10 6 0 11 5 11 10 0 6 -2 10 -4 10 -3 0
-8 -4 -11 -10z"/>
<path d="M261 726 c-7 -8 -8 -17 -3 -20 6 -3 15 1 21 8 7 8 8 17 3 20 -6 3
-15 -1 -21 -8z"/>
<path d="M193 578 c0 -13 1 -17 4 -10 3 6 10 9 16 5 7 -4 6 1 -2 10 -17 21
-17 21 -18 -5z"/>
<path d="M140 584 c0 -1 6 -7 14 -13 10 -9 15 -8 19 2 3 8 -3 13 -14 13 -11 0
-19 -1 -19 -2z"/>
</g>
</svg>
